/* XPM */
static char *_7e391a2f8694d4d8c8be507e6355953EXawIWpe2J5RVZGA[] = {
/* columns rows colors chars-per-pixel */
"50 50 250 2 ",
"   c None",
".  c #DC6704",
"X  c #DC6804",
"o  c #DD7515",
"O  c #DD7615",
"+  c #DD7516",
"@  c #E26B05",
"#  c #E26B06",
"$  c #E26C05",
"%  c #E26C06",
"&  c #E26D06",
"*  c #E47108",
"=  c #E67309",
"-  c #E17508",
";  c #E27508",
":  c #E27608",
">  c #E37708",
",  c #E37709",
"<  c #E3760A",
"1  c #E8760A",
"2  c #E9760A",
"3  c #E9770A",
"4  c #EA770A",
"5  c #E4790B",
"6  c #E67B0B",
"7  c #E2790E",
"8  c #E47B0C",
"9  c #E57C0C",
"0  c #E47C0D",
"q  c #E67E0C",
"w  c #E67F0D",
"e  c #E57E0E",
"r  c #EB780A",
"t  c #ED7A0A",
"y  c #EC7A0B",
"u  c #EA7F0F",
"i  c #E27B10",
"p  c #E7820D",
"a  c #E9810D",
"s  c #E8820D",
"d  c #E8830D",
"f  c #EB800F",
"g  c #EB810F",
"h  c #E8820E",
"j  c #E8830E",
"k  c #ED810E",
"l  c #EC800F",
"z  c #ED810F",
"x  c #E9840E",
"c  c #EA860F",
"v  c #EB860F",
"b  c #F1830F",
"n  c #F2830F",
"m  c #F4820D",
"M  c #F5820E",
"N  c #F5830E",
"B  c #F5850E",
"V  c #F8830B",
"C  c #F8830C",
"Z  c #F8840C",
"A  c #F8850D",
"S  c #F8850E",
"D  c #F8860E",
"F  c #F8860F",
"G  c #E58216",
"H  c #E98010",
"J  c #EA8110",
"K  c #EC8010",
"L  c #EE8110",
"P  c #EF8210",
"I  c #EC8712",
"U  c #EF8612",
"Y  c #E88916",
"T  c #E68619",
"R  c #E78B1C",
"E  c #E88B1D",
"W  c #E88D1F",
"Q  c #F18310",
"!  c #F08410",
"~  c #F18511",
"^  c #F48710",
"/  c #F68710",
"(  c #F88710",
")  c #F08912",
"_  c #F78A10",
"`  c #F58D11",
"'  c #F68D11",
"]  c #F78D11",
"[  c #F58E11",
"{  c #F68E11",
"}  c #F78E11",
"|  c #F88B11",
" . c #F88913",
".. c #F88C11",
"X. c #F88D11",
"o. c #F98E11",
"O. c #F98F12",
"+. c #F88A14",
"@. c #F98F1A",
"#. c #F09312",
"$. c #F59113",
"%. c #F69012",
"&. c #F69113",
"*. c #F59313",
"=. c #F79312",
"-. c #F69313",
";. c #F09412",
":. c #F09413",
">. c #F29713",
",. c #F79413",
"<. c #F69414",
"1. c #F79414",
"2. c #F99010",
"3. c #F89011",
"4. c #F89111",
"5. c #F89012",
"6. c #F99112",
"7. c #F89212",
"8. c #F99212",
"9. c #F99213",
"0. c #F99313",
"q. c #F89413",
"w. c #F89614",
"e. c #F99714",
"r. c #F39813",
"t. c #F39814",
"y. c #F39A15",
"u. c #F49A14",
"i. c #F49A15",
"p. c #F49B15",
"a. c #F49B16",
"s. c #F59D15",
"d. c #F59D16",
"f. c #F59E16",
"g. c #F69F16",
"h. c #F69F17",
"j. c #F99915",
"k. c #FA9A15",
"l. c #F99C15",
"z. c #FA9F17",
"x. c #F9921D",
"c. c #F6A017",
"v. c #F7A017",
"b. c #F7A117",
"n. c #F9A017",
"m. c #F9A117",
"M. c #FAA116",
"N. c #FAA017",
"B. c #FAA117",
"V. c #FAA217",
"C. c #FAA317",
"Z. c #FAA617",
"A. c #FBA617",
"S. c #F7A218",
"D. c #F8A318",
"F. c #F9A318",
"G. c #FAA218",
"H. c #FAA318",
"J. c #F8A418",
"K. c #F9A418",
"L. c #FAA418",
"P. c #FAA518",
"I. c #FAA419",
"U. c #FAA618",
"Y. c #FAA718",
"T. c #FBA718",
"R. c #FAA619",
"E. c #FAA719",
"W. c #FBA719",
"Q. c #FAA71A",
"!. c #FAA819",
"~. c #FBA819",
"^. c #FBA919",
"/. c #FBA81A",
"(. c #FBA91A",
"). c #FAA81B",
"_. c #FAA91C",
"`. c #FAA91D",
"'. c #FAAA1E",
"]. c #E89022",
"[. c #F99E2C",
"{. c #F99F2D",
"}. c #FAAC20",
"|. c #FAAD23",
" X c #FAAD24",
".X c #FAAF25",
"XX c #FAAF27",
"oX c #FAB028",
"OX c #FAB32C",
"+X c #FAB02F",
"@X c #FAB42D",
"#X c #F5AC35",
"$X c #F8B235",
"%X c #E99F40",
"&X c #E9A343",
"*X c #EAA343",
"=X c #E9A748",
"-X c #EAA848",
";X c #EAA849",
":X c #EAA94A",
">X c #EBAF4D",
",X c #F7AE42",
"<X c #EDB64C",
"1X c #F8B146",
"2X c #F6B64E",
"3X c #EDB150",
"4X c #EEB654",
"5X c #F9BC51",
"6X c #F0BB59",
"7X c #FCC347",
"8X c #F8C54A",
"9X c #F8C64E",
"0X c #FBC74F",
"qX c #FACA52",
"wX c #FCC950",
"eX c #F9CB56",
"rX c #FACC57",
"tX c #FAC45B",
"yX c #F7CF5D",
"uX c #FBD15E",
"iX c #FBCA61",
"pX c #FBCC63",
"aX c #FCCC63",
"sX c #FCCD63",
"dX c #FBD263",
"fX c #FAD666",
"gX c #FAD667",
"hX c #FCD667",
"jX c #FBDA6E",
"kX c #FCDB6E",
"lX c #F5D971",
"zX c #F8D977",
"xX c #FADD74",
"cX c #FADE74",
"vX c #FBDE75",
"bX c #F2DD7A",
"nX c #F0DF7E",
"mX c #F9DA78",
"MX c #F9DB79",
"NX c #F2E282",
"BX c #F1E486",
"VX c #F1E586",
"CX c #F1E487",
"ZX c #F4E687",
"AX c #F5E687",
"SX c #FBE782",
"DX c #F0E689",
"FX c #F3E88A",
"GX c #F6E888",
"HX c #F6E889",
/* pixels */
"                                                                                                    ",
"                                                                                                    ",
"                                                                                                    ",
"                                                                                                    ",
"                                                                                                    ",
"                                                                                                    ",
"                                                                                                    ",
"                                                                                                    ",
"                                                                                                    ",
"                                                                                                    ",
"                                                                                                    ",
"                                          _ / / / / / / /                                           ",
"                                    H B [ m.m.m.B.m.m.m.m.` B H                                     ",
"                                  l %.z.m.!.Z.!.~.!.!.!.!.z.z.*.l                                   ",
"                              f L %.m.!.v.f p p f p p p c f.!.m.%.L u                               ",
"                            I %.*.H.!.f.c % $ % % % % @ % c f.T.H.7.9.<X                            ",
"                            _ T.!.!.S.f * _ ` | | | ` | | * c f.T.T.}.lX                            ",
"                            { T.!.m.p = ` Z.T.H.H.T.v.Q.m.O.= q S.T.).gX                            ",
"                        H 1.T.T.Z.8 = %.v.!.Q.Y.T.T.T.Q.!.m.` r 0 T.T.XXyXDX                        ",
"                      u 1.H.!.S.0 r ` m.Y.Q.Y.Q.T.T.).Q.!.!.m.#X>X0 S.Z.@XeXBX                      ",
"                      Q k.~.S.f = %.S.!.T.T.Q.Y.Y.Q.Q.Q.T.T.T.+X2X*XY f.T.7XGX                      ",
"                      Q j.~.:.. M m.).T.Q.T.Y.Q.Q.Q.Q.Q.T.T.H.%.[.MX+ #.T.7XGX                      ",
"                      Q k.(.:.X M z.Z.T.Q.Q.Q.Y.Y.Q.T.Q.T.H.%.V [.zXo >.T.7XGX                      ",
"                      Q j.~.:.X M z.T.T.Q.Q.Y.Q.Q.Y.T.T.T.O.D C [.zXo #.T.7XGX                      ",
"                      n j.!.:.X n z.T.T.Q.).).T.Y.Q.T.m.O.D D C [.zX+ ;.!.7XGX                      ",
"                      n j.!.:.X M h.Q.T.Q.T.T.T.Q.Y.m.O.D D D D [.zX+ ;.!.7XFX                      ",
"                      Q j.~.:.. M m.!.!.Q.Q.T.).Y.m.7.D D D C V [.MX+ :.T.7XGX                      ",
"                      ~ z.~.a.5 y 7.v.Y.Q.Q.T.!.v.7.D D C D C x.,X4XG y.T.7XGX                      ",
"                      L e.H.T.f.- y 7.Z.T.).T.H.9.C D D D C @.1X6X7 f.!.XX0XAX                      ",
"                        ~ 1.T.T.v., r 7.T.).H.` ( ( C C D +.5X3Xi h.!._.eXNX                        ",
"                          U 7.W.T.f.0 f T.H.O.( ( C ( ( +.tX*XT f.T._.uXbX                          ",
"                            ` T.!.!.u.d ].dXaXaXaXaXaXaXiX%XW >.T.T.!.kX                            ",
"                            ) e.e.m.~.u.E =X:X:X:X=X:X:X=XR >.T.XXwXqXlX                            ",
"                              L ~ $XoX~.a., - * , - , , , y.T.XX8XAXFX                              ",
"                                  BX9XOXXXT.T.T.T.!.Y.v.T.oXOX9XBX                                  ",
"                                    nXSXfX|.}.}.|.'.'.|.|.fXSXnX                                    ",
"                                          vXvXvXvXvXvXvXvX                                          ",
"                                                                                                    ",
"                                                                                                    ",
"                                                                                                    ",
"                                                                                                    ",
"                                                                                                    ",
"                                                                                                    ",
"                                                                                                    ",
"                                                                                                    ",
"                                                                                                    ",
"                                                                                                    ",
"                                                                                                    ",
"                                                                                                    ",
"                                                                                                    "
};
