/* XPM */
static char *ec18128121bc4921a95139ea78e2a22dFXmzZKlCe9UsGyac[] = {
/* columns rows colors chars-per-pixel */
"50 50 162 2 ",
"   c None",
".  c #1E8C44",
"X  c #228E44",
"o  c #269045",
"O  c #2B9345",
"+  c #339646",
"@  c #369846",
"#  c #3B9B47",
"$  c #3D9B48",
"%  c #419E47",
"&  c #439D48",
"*  c #45A147",
"=  c #48A246",
"-  c #45A148",
";  c #4BA349",
":  c #50A646",
">  c #54A847",
",  c #5BAB47",
"<  c #53A54A",
"1  c #58A74C",
"2  c #55A949",
"3  c #5CAB49",
"4  c #52A654",
"5  c #59AA50",
"6  c #63AE4B",
"7  c #6AAF4D",
"8  c #66B04A",
"9  c #6BB14D",
"0  c #74B54D",
"q  c #79B64D",
"w  c #77B84F",
"e  c #7CB94E",
"r  c #62AE51",
"t  c #65B153",
"y  c #69B255",
"u  c #6CB45B",
"i  c #74B653",
"p  c #7BB751",
"a  c #77B851",
"s  c #7CBA53",
"d  c #73B75D",
"f  c #7CBB5D",
"g  c #55A869",
"h  c #73B763",
"j  c #75B865",
"k  c #7FBC64",
"l  c #7CBB6B",
"z  c #6EB571",
"x  c #76B970",
"c  c #84BC4F",
"v  c #89BE4F",
"b  c #84BC51",
"n  c #8ABF51",
"m  c #84BD58",
"M  c #83BD60",
"N  c #81BE6A",
"B  c #83BF72",
"V  c #8EC152",
"C  c #87C05E",
"Z  c #8CC15B",
"A  c #93C252",
"S  c #9BC554",
"D  c #9FC854",
"F  c #93C35B",
"G  c #9AC65B",
"H  c #A3C655",
"J  c #A5CA55",
"K  c #A9CB56",
"L  c #A5C55A",
"P  c #A8C75B",
"I  c #A4CA5C",
"U  c #AACB5B",
"Y  c #87C066",
"T  c #8DC264",
"R  c #8DC26B",
"E  c #94C563",
"W  c #99C764",
"Q  c #93C56A",
"!  c #9AC76F",
"~  c #9BC86A",
"^  c #8BC37B",
"/  c #97C774",
"(  c #99C774",
")  c #94C77A",
"_  c #9BCA7E",
"`  c #ACCD64",
"'  c #ABCF6B",
"]  c #B0CF64",
"[  c #B1CF6A",
"{  c #AFD06D",
"}  c #B4D16C",
"|  c #A2CB70",
" . c #A3CC7C",
".. c #ABCE7B",
"X. c #ADD075",
"o. c #B5D376",
"O. c #B9D474",
"+. c #B4D37B",
"@. c #BBD57C",
"#. c #8EC581",
"$. c #93C785",
"%. c #9BCB86",
"&. c #96C98B",
"*. c #95C888",
"=. c #98CA8C",
"-. c #9ECC88",
";. c #9ECD93",
":. c #A1CC83",
">. c #A4CE84",
",. c #A0CD8E",
"<. c #AED284",
"1. c #A7D08E",
"2. c #AED38E",
"3. c #AAD28F",
"4. c #B6D584",
"5. c #BFD683",
"6. c #BAD681",
"7. c #BED38B",
"8. c #BFD689",
"9. c #BBD88C",
"0. c #A2CE97",
"q. c #A3CF99",
"w. c #AFD495",
"e. c #A7D199",
"r. c #A5D09A",
"t. c #B0D394",
"y. c #B6D790",
"u. c #B8D797",
"i. c #BFDB94",
"p. c #B8D898",
"a. c #BCDA9A",
"s. c #AED5A2",
"d. c #B1D6A4",
"f. c #BDDBA6",
"g. c #BFDDAF",
"h. c #BCDBB1",
"j. c #C0D982",
"k. c #C0D887",
"l. c #C4DA8F",
"z. c #C4DB8C",
"x. c #C4DC93",
"c. c #C8DD91",
"v. c #C9DD94",
"b. c #C6DE98",
"n. c #CBDF9E",
"m. c #C8DE9D",
"M. c #CCE09E",
"N. c #C5DEA5",
"B. c #C3DDA2",
"V. c #C1DDA8",
"C. c #CFE2A9",
"Z. c #CDE2AB",
"A. c #D1E3A5",
"S. c #D5E6AF",
"D. c #C8E2B9",
"F. c #D5E6B6",
"G. c #D2E5B4",
"H. c #D8E7B6",
"J. c #D9E6BA",
"K. c #CEE6CA",
"L. c #D6E9CA",
"P. c #DAECD7",
/* pixels */
"                                                                                                    ",
"                                                                                                    ",
"                                                                                                    ",
"                                                                                                    ",
"                                                                                                    ",
"                                            L J k.O.K K x.k.J                                       ",
"                                    H } I V s T C I @.c.O.} J H                                     ",
"                                  K ` t.i 9 :.N.n 0 Z F.o.K j.O.                                    ",
"                                ` S >.j , c ..u.s 9 8 l i c 2.+.I M.T 8 p ..                        ",
"                            H +.B.y j u , 6 p W V A q 9 6 h 8 9 V V V V F A.j.                      ",
"                          G S E h y q.u , 6 c n c V 0 v F f.u 3 , l l 0 D U U @.7.                  ",
"                          Z d , , 6 l u > > n K J D 6 ; 1 f i 3 , l B y Y V I H.n.H                 ",
"                        S b q q b 0 , 3 6 b p b H b 7 0 9 c K 0 $ & ; u ^ 8 e Q W J                 ",
"                      n B F H v 9 3 6 e e & X $ 6 + X o @ ; a S b + O 1 ^ y , 8 q H                 ",
"                       .A.m._ 6 8 9 V c $ X + 0 n n 0 3 1 < + $ 6 9 @ z P.#.u 3 6 ! }               ",
"                    S U G e.g.A S S A + & b S H n U K K K K p @ + # e 4 z *.^ , 3 l (               ",
"                    S V F m +.F , 0 & 6 9 0 0 & 6 s e S 0 7 1 + = $ 2 t + 5 t , &.&.3               ",
"                  @.F ^ x.S 0 + X & 1 & o o . X + ; c S 6 & & X ; 2 O ; # , 3 , r.0.r               ",
"                  c.Q f { q $ . & 7 + X . X . . O 9 q n S A p O + 2 + O # 3 3 3 r r ,.              ",
"                  J V V e , @ O i & X @ * @ O @ O X X + 7 H K 6 o + @ O # = 3 3 3 , f `             ",
"                  V V V 8 3 = = 1 X # 2 2 ; & O $ $ r & O 6 K n + = & X < , , 3 3 3 , c J           ",
"                H n D V 3 3 @ 8 1 X ; # @ & & ; n n 6 1 + o n S $ ; < O + 1 = 2 , 3 , 8 F           ",
"                S e S e 3 # X 9 & & : X @ c H H K b 7 & X . < H i O - $ O @ & & 3 3 ^ u c           ",
"                A 8 q 0 2 @ . # $ > # X 9 K J S H < a n & X > H 7 + $ - + X # & 3 3 ;.h c           ",
"                A i W q : X . . # ; = X , J n # b 7 & 0 $ o b K 3 o & @ @ & $ + 2 3 8 3 s           ",
"                q N a.7 & X @ o o & & X O 6 b & n b & < & $ n K 2 @ 2 O # = 1 o 2 3 3 3 V           ",
"                0 i W 3 ; @ # . + 2 # . X O : * 6 L H K q < K b O ; , # o + & o 2 3 3 V J           ",
"                A q c 3 , 2 # . $ 3 $ X X $ O # + b H 0 & 7 q + @ $ < $ . O y # , 3 6 S P           ",
"                J Z c 8 3 3 % . o ; 2 @ X # # @ @ O $ O < < o + + + & X @ # i : , 8 0 S             ",
"                H 9.>.E 9 3 : o o @ = 3 % O = # + . X X X X + + # & + O - 9 1 , r V R +.            ",
"                  ` 1.Z.T 3 3 = o . # 3 2 O + ; < @ O @ $ + o + $ + X X y , = t w.{ M.F.            ",
"                  A V D.i.8 3 , O . o ; , & X X & & & & o O 4 < X X @ 7 7 = 3 f M.` { {             ",
"                    K v.O.v j h 4 o # = = : - o o X + $ + & $ X O 1 n c s s h.4.m V K J             ",
"                  H ] O.J c ^ 0.K.g 2 9 X o O o O 8 9 y = O & r < 1 0 b 9 m L.s.s./ H L             ",
"                    K A e 0 , u h.x 8 V ; . . o + & + X O 6 8 : & 9 n e V  .j u $.C                 ",
"                    K S 0 n 6 , r 3 , V S t # O O O X X O # y V A H K K K s 8 3 q J                 ",
"                    J U p._ b q , , 3 r V K S 9 ; + @ : 8 0 V V K z.O.V A D f 9 S K K               ",
"                      U c.i.{ ` V 8 B h 8 c F c.~ 9 3 8 9 9 0 8 A  .^ 8 G G ! G K                   ",
"                          K { y.S V i r , , f h.k q V q V V a 3 8 d $.G S.O.K                       ",
"                          K F -.s 9 Z Y 8 k X.S S ` q 8 s w.Q V 8 ) G.U } U                         ",
"                              H S e k 1.s -.-.0 T -.V A S 6.o.0 j d.' J J                           ",
"                                  J S i.6.S c 6 8 8 e i 9  .| e ..A.` P                             ",
"                                          J J 2.<.S A <.p.J H H J P                                 ",
"                                                                                                    ",
"                                                                                                    ",
"                                                                                                    ",
"                                                                                                    ",
"                                                                                                    ",
"                                                                                                    ",
"                                                                                                    "
};
