/* XPM */
static char *_9e3999cb1644e07b40283818fa63b4fucv0gidy9Grcm1PP[] = {
/* columns rows colors chars-per-pixel */
"50 50 168 2 ",
"   c None",
".  c black",
"X  c #000025",
"o  c #151528",
"O  c #161529",
"+  c #17162A",
"@  c #19182C",
"#  c #1A192D",
"$  c #1C1B2F",
"%  c #010133",
"&  c #000B30",
"*  c #050A32",
"=  c #000D3B",
"-  c #061535",
";  c #1D1C30",
":  c #1E1D31",
">  c #201F33",
",  c #1A273C",
"<  c #212034",
"1  c #222135",
"2  c #232235",
"3  c #232236",
"4  c #252438",
"5  c #262538",
"6  c #262539",
"7  c #25253B",
"8  c #27263A",
"9  c #28273B",
"0  c #26293F",
"q  c #29283C",
"w  c #2A293D",
"e  c #2B2A3E",
"r  c #2B2A3F",
"t  c #2C2B3F",
"y  c #011E49",
"u  c #0F2A4E",
"i  c #182D4F",
"p  c #2B2B40",
"a  c #2D2C40",
"s  c #2E2D41",
"d  c #2C2C42",
"f  c #2F2E42",
"g  c #302F42",
"h  c #302F43",
"j  c #312F43",
"k  c #313141",
"l  c #313042",
"z  c #313043",
"x  c #313044",
"c  c #323144",
"v  c #323145",
"b  c #333246",
"n  c #343347",
"m  c #383447",
"M  c #353448",
"N  c #363548",
"B  c #363549",
"V  c #373549",
"C  c #373649",
"Z  c #37364A",
"A  c #38374B",
"S  c #39384B",
"D  c #3D384A",
"F  c #38384C",
"G  c #39384C",
"H  c #3A394D",
"J  c #3B3A4D",
"K  c #3B3A4E",
"L  c #3D3A4C",
"P  c #3C3B4D",
"I  c #3C3B4F",
"U  c #3D3D4F",
"Y  c #253651",
"T  c #293652",
"R  c #2D3F59",
"E  c #313153",
"W  c #373E57",
"Q  c #3D3C50",
"!  c #3E3D51",
"~  c #3D3E51",
"^  c #3F3E50",
"/  c #3F3F51",
"(  c #3F3D52",
")  c #3F3E52",
"_  c #3E3E53",
"`  c #413C4D",
"'  c #403F4E",
"]  c #403F53",
"[  c #403F54",
"{  c #474050",
"}  c #414054",
"|  c #424155",
" . c #424256",
".. c #434256",
"X. c #454354",
"o. c #444356",
"O. c #454457",
"+. c #474557",
"@. c #454458",
"#. c #464559",
"$. c #47465A",
"%. c #494659",
"&. c #48475B",
"*. c #4D495B",
"=. c #49485C",
"-. c #4A495D",
";. c #4B4A5E",
":. c #4C4B5F",
">. c #4D4C5F",
",. c #4F4E5E",
"<. c #4D4C60",
"1. c #4E4D61",
"2. c #4F4E62",
"3. c #504F63",
"4. c #594F61",
"5. c #515064",
"6. c #525165",
"7. c #535266",
"8. c #545367",
"9. c #5E5364",
"0. c #595666",
"q. c #555468",
"w. c #555569",
"e. c #565569",
"r. c #57566A",
"t. c #57576B",
"y. c #585669",
"u. c #58576B",
"i. c #5B586B",
"p. c #5F586A",
"a. c #5F596B",
"s. c #59586C",
"d. c #5A596D",
"f. c #5B5A6E",
"g. c #5D5A6D",
"h. c #5E5A6D",
"j. c #5F5B6D",
"k. c #5C5B6F",
"l. c #5D5C70",
"z. c #5E5D71",
"x. c #5F5E72",
"c. c #605B6D",
"v. c #675C6C",
"b. c #605F73",
"n. c #646472",
"m. c #616074",
"M. c #626074",
"N. c #626175",
"B. c #636276",
"V. c #646377",
"C. c #676774",
"Z. c #656478",
"A. c #666579",
"S. c #676778",
"D. c #68677B",
"F. c #696878",
"G. c #69687C",
"H. c #6A697D",
"J. c #6D6C80",
"K. c #6F6E82",
"L. c #706F83",
"P. c #777780",
"I. c #737286",
"U. c #77768A",
"Y. c #78778B",
"T. c #797988",
"R. c #F5DFDB",
"E. c white",
/* pixels */
"                                                Q                                                   ",
"                                              h U.r.O                                               ",
"                                            ; G.2.r.G.O                                             ",
"                                            6 N.2.>.l.G                                             ",
"                                            Q r.2.2.6.N.                                            ",
"                                            2.q.6.2.2.A.2                                           ",
"                                          X.f.6.2.r.Q 6. .                                          ",
"                                          2 b.2.2.6.8.# G                                           ",
"                                          h k.3.2.2.N.U                                             ",
"                                           .r.3.6.2.l.G                                             ",
"                                        T.r.6.3.2.2.r.6.                                            ",
"                                        $ V.3.3.2.6.2.l.6                                           ",
"                                        a l.3.3.3.3.3.l.6                                           ",
"                                P.> 2 l A s.2.3.3.3.2.k.S                                           ",
"                            O Q r.b.K. . .r.2.2.3.3.2.8. .c Q f 2 l                                 ",
"                          2 I.f.6.3.q. .P l.r.r.r.r.r.V.o.Q N.l.N.b.p c                             ",
"                          t.6.<.2.3.6.6.U g A Q  .o.] n g :.6.3.2.2.K.Q                             ",
"                          ; K.l.6.3.3.3.r.u.-.[  .Q o.%.f.8.2.2.6.f.G.2                             ",
"                            # c s.V.l.r.a.v.i.k.k.c.c.c.u.q.k.b.l.G +                               ",
"                                  ; 6 9.* % R W Y i u y T 4.a 4 }                                   ",
"                                        E.R.R.R.R.R.R.R.R.                                          ",
"                                      , . R.R.R.R.R.R.R.-                                           ",
"                                    F.] = . E . . . X & m f                                         ",
"                                    c Z ` Q p Q +.} D D Z Z                                         ",
"                                  f G n n Z n Z N n g f c G h                                       ",
"                                  Z n n n Z n Z n N Z Z h c Z a                                     ",
"                                f Z n Z n Z n n N n N n Z Z Z h                                     ",
"                                Z Z n Z n n Z n n N n Z n n n Z w                                   ",
"                              f Z Z n n n Z n n n Z Z n n n n A f                                   ",
"                              c n n n Z n n n Z n n n n n Z n Z Z                                   ",
"                            f n Z n Z Z Z Z Z n Z n Z Z Z n Z Z c                                   ",
"                            f n Z n c c c c Z n Z n h h p f f a                                     ",
"                              :.a #.t w 6 6 2 6 w f c G <.f r.Z                                     ",
"                                  > Y.l.l.k.l.N.s.G V.r.f.-.@.&.                                    ",
"                                  Q q.2.3.2.2.2.3.Z q.2.3.3.G 6.                                    ",
"                                Q -.8.3.3.3.3.3.6.Z q.3.3.r.G r.Q                                   ",
"                                2 b.2.3.3.3.3.3.r.Z 6.3.3.r.Q 2.f                                   ",
"                                Q r.3.3.3.3.3.3.6.Z 6.6.3.6.#.&.#.                                  ",
"                              D.l.6.3.3.3.3.3.3.r.G 2.3.3.l.G -.f.                                  ",
"                              < N.2.3.3.3.3.3.3.r.Q -.6.f.Q Z s.f.<                                 ",
"                              ] r.2.3.3.3.3.3.3.r.] #.l.Z Z f.3.N.6                                 ",
"                              q.q.3.3.3.3.3.3.3.6.6.n n  .f.2.2.l.c                                 ",
"                            > N.3.3.3.3.3.3.3.3.2.8.2.:.r.2.3.3.r. .                                ",
"                            6 N.2.3.3.2.3.3.3.3.3.3.6.6.2.2.2.2.6.u.                                ",
"                            0.F.r.2.2.2.3.3.3.3.3.3.3.3.3.3.3.2.q.A.n.                              ",
"                              ; b.V.r.8.3.2.2.2.2.2.2.2.3.6.8.N.G.#                                 ",
"                                C.2 P 6.b.b.l.k.k.k.f.l.N.l.2.a $                                   ",
"                                        2 9 w h c c t w 4 >.                                        ",
"                                                                                                    ",
"                                                                                                    "
};
