/* XPM */
static char *ea2f6d7391f6429d802dc486db0dfb4dLhCuerojvdrC6UyO[] = {
/* columns rows colors chars-per-pixel */
"50 50 43 1 ",
"  c #536F2D",
". c #566F2E",
"X c #586F2E",
"o c #53712D",
"O c #55732E",
"+ c #56722F",
"@ c #57722F",
"# c #59712F",
"$ c #59732F",
"% c #58752F",
"& c #58772F",
"* c #5A7330",
"= c #587630",
"- c #5E7431",
"; c #5C7632",
": c #5F7733",
"> c #5B7831",
", c #5E7A33",
"< c #5F7C33",
"1 c #5F7B34",
"2 c #5F7C34",
"3 c #617533",
"4 c #607733",
"5 c #607B33",
"6 c #637935",
"7 c #617A34",
"8 c #627A34",
"9 c #647A35",
"0 c #607D34",
"q c #637C36",
"w c #637E36",
"e c #647C35",
"r c #667D37",
"t c #687C37",
"y c #677F38",
"u c #687F38",
"i c #648036",
"p c #678037",
"a c #678238",
"s c #698138",
"d c #6B823A",
"f c #6B843A",
"g c #6D853B",
/* pixels */
",wrwwir=r%%s27,>w%,,ifs7w,7,7a=1,ww,rw%,%rw,rwr=7w",
"w,w,,,,,ir&7,sw>w=>,ir7;>r957f=7,,,=;,r5%w>%77,,w=",
"7,<=w<=7r<wt7rw,i9<1r75=;w,5ww7r7,755,w,r=,=i5,5,%",
"rrwrrarr,wwusaw,y=,1=,r%,w=;>r2r75r;r,,,2ru7r7,,w;",
"745rigw7rr5=4,w,1=wrr,r,;7=#,9rw5r57,,;,,77;7w,w,s",
"@%;;7s7<=rw,=,ww9wrrr,5w=;77,=;;5r7dww,;77177w;5ws",
"=r;,rwww15w,#rr,74,ds,=9*=;55;77,9rr<,>,r71,75;w,5",
"=r;,<2r==%,r,,2,1;7ri<;w175ru,w7<wit=@>w=y9,4;=r9=",
";,;r9r=7w#,w,=,wr,rr;7,7wy7r7%;r5;5w9=,r%w5;4<=w97",
"79r7yw=ir%;5,w<>,w,r47777957,;,w,,;=7w%5rr;;9w<w11",
";7=;=7=ww%=9,1w1,iww79,w==,;%rr,>,w>,,%;7r,,r5,77=",
"97,1wyrsrrr7,w27ii;;waww;,;5=,r=>rrwri;%wr,rr,>r7;",
"9r%4rrsi77ww,;77rr;57wrw;,777,w,,riwuiw=,=79r5=2,*",
";,;;,=rr2=rr77,7,=;;=wwssw,7rr5<rr5rr9;,,=rwrr7,*=",
",;;#r;9,==u17r,1%5t51759;w,;y7715;%<%,,;7sir757;=@",
"#;;5744tr=7727,=5irrws7==,7*,7,=7y7w,<;,>=5rw,r,1*",
"rwu97,55=2s7;7;*;;555rswr5r%,w==wiw=;*,w@@rw77,ry*",
"iwr,,,347rs7w57=5,;r1y7rs7wr,,7uir%<1+;<#,r2=wia7*",
"7r;,,;4;4ss7,;ww5%;i7i=7a7w7777yir#7,=rrwif>,w771=",
"ww;,7=,,=ss95,r,7%;57==r7,7==;;9r7,;,rr<rws<7yy47w",
"tr<>w1117w7aw7r%7u117177;,=w*=r,=47=;yi,w<ry;,%,77",
">w%,7wtw777=,7=,7uays7;1,=@r1@7=@ 71>=r,7;<r;#%#1;",
"%>=r17t17=y1,,,wra7=r71,,r5=7rur,=75,;>w7#=75,=;7;",
"w,>wwywy7=aw<<wr5;1*sarw%r5,,7s=;w75%,w77@=7,%;w=1",
"%=r=97=7w,iw<5if<@%%ir,w%,=rr7w,,7;,@w7,==ir7iwr,*",
"17t3;w**wwgr75ru<,r<wr%,,r=,<iw%%=5r,,,r7wsi,s,,79",
"yt;74,,=,,,=7r,=@5r5w,#r%<%=ri5r,,,w5r%<27rirw@=su",
",=;*,wwr,w9=w,2=,r5r5r5=w7w==w5rw;w,5;#<1=2r7,+;s7",
";,%,9,5irwi7iw77%5r<<<2wwri,%wriwrsw,r5r==,,4=*4y7",
"w=5ws,wsw,,52r,55i5rr,<,,,ww;7,,w,r,177syr1w1*-=7;",
"7@,rwwww9r=77w55;w<ri<ir,,ww5,wwww79=w,,r777;77;1=",
"7=;w,f7,=y=7w;,;5<%%rwwr=rwrr%,5,,,,*57=,,,wyt77==",
"ur,r,r,5,7,59s,%rr=<7r5;;5;57=1,rr,5,7ro%r,r2;%;47",
"9rwr,w,,5;357ii,;u,,w>r44,=,7%;7,sw7wsr@%i,7,57,4;",
"<r<w,<rrrw,4=>a,79=#r%,r,w7rr,5rrrrw,;,>,w@7,wr55-",
",,r<@o%rww,;=#5w777=ww=;,w,r5wwsswrr5w5rw==7wr,w,#",
"=us,,,=9rwy2;r7r7=71wiw5wwr2=,wrgirw,5irr%w=,w,=,1",
",5iwr5,r7775r7%rww1;wirr,7s7=;w52ww=5;;5<;,r7rt5,,",
",,rr5w=5ww,9r,=rys,>>w5,47rir,,5,&r,rw>,,%@,=w<7,;",
"5#ww5w%,,7<,ii<>77,%>75<s77=7r=,rwi,5r,5s%@r,=r9,,",
"rwis,,rrww;w,;,%%;%@,%%,ww1=,>,w7yw;r5,5>%.ys5g2w,",
"wr1r;,>wwr;w9,@@;,;;r%>,7r72,,&<@;=;2r7,@#7rrr7=;y",
"7<7=@<,>,,w57<%#,wirr<r,riw7,r;r,#;s17w,%Xtus9**=9",
",r;=@7iri7wwsir2wrwii,w,wr7,575,rr=,,<r,,=9;w,,,7,",
"=7,r9risf,rw=ywww2=7a5=wwrisrr,;iw<;7,,%,,,ww7=957",
"=,,,;577rw<<+yrwra,r,,,%5,usr95#,rr,;=r=%=,7yy7as,",
">w,o#=,<iwr2,,ri4777=7,,,wrw55,rwr=*-,sr,5w,w77;w5",
"iw,<<,r,,,,r,><<===,rr,s7>w<,>,7r,;r,wr7;,r5r,r,,r",
"ir,,rrr<<,wiw<;,;;%;wrw577;77=ww,,ri5,;45r5r=7w,>i",
",w,@>i,,7,;r5,5,5%;;,sr;,<rwr9ww;=7is,;,9rr=;w,>,9"
};
