/* XPM */
static char *_73d245757ef49f6918e68f498b6d980UhFRoUg3qTlu3lLp[] = {
/* columns rows colors chars-per-pixel */
"50 50 73 1 ",
"  c None",
". c #000003",
"X c #000012",
"o c #000023",
"O c #000031",
"+ c #000D3D",
"@ c #100E30",
"# c #00113D",
"$ c #1E1E35",
"% c #1F263D",
"& c #25263D",
"* c #2A2A3E",
"= c #1E2844",
"- c #252B41",
"; c #2E2D41",
": c #302F43",
"> c #302F4A",
", c #2D364B",
"< c #333246",
"1 c #383547",
"2 c #353448",
"3 c #38374A",
"4 c #3B3A4E",
"5 c #2C3D53",
"6 c #353D53",
"7 c #3E3D52",
"8 c #403F53",
"9 c #2B4057",
"0 c #2A435B",
"q c #3B4055",
"w c #2B4C65",
"e c #2B4E6A",
"r c #2A516C",
"t c #434255",
"y c #494357",
"u c #464559",
"i c #4A465A",
"p c #4B495D",
"a c #51465A",
"s c #514B5E",
"d c #4E4D61",
"f c #504F63",
"g c #525165",
"h c #595365",
"j c #595965",
"k c #565569",
"l c #59576A",
"z c #555E6F",
"x c #5B596B",
"c c #625D6D",
"v c #646372",
"b c #696976",
"n c #6E6D7A",
"m c #746E7F",
"M c #72727E",
"N c #AD161C",
"B c #BC2632",
"V c #FF1622",
"C c #D8222F",
"Z c #D3494B",
"A c #FF555F",
"S c #C75F65",
"D c #FF5668",
"F c #FF5C68",
"G c #FF656D",
"H c #FF7270",
"J c #727281",
"K c #7E7E89",
"L c #807E87",
"P c #807C8A",
"I c #81818B",
"U c #F2D5D0",
"Y c #FFFFFD",
/* pixels */
"                           <g                     ",
"                          <p4                     ",
"             ;;:;;       <dldt                    ",
"             :  ;;;     j4dgg3                    ",
"                  :;    <7pggq                    ",
"             HHGS  ;;   <7dfgu                    ",
"             DZBF  ;;   ;tgggp:                   ",
"             AANN  ;;   4dgggf<                   ",
"             CVNN  ;;   iggffg7                   ",
"                  ;;    4gfffgt                   ",
"                ;;;     tgfffgp                   ",
"              ;;;      jdgfffgd<                  ",
"              ;;       tggdffgf2                  ",
"              ;;       4kdgfffg7                  ",
"              ;;   vpt<tgdfffggq7u87:&            ",
"              ;; *4dgg7tkgfdggluufggkf;           ",
"              ;;8xgggd74pdgggpt3uggdggk:          ",
"              *;dlgddgdu743334tpdfdgdkk:          ",
"              ;;uulkggfffdggdgggdggklu;           ",
"              ;;  ;4dggghxhxxlgdgku3;             ",
"              ;;    I72=oO+#+oX>3v                ",
"              ;;       UUUUUUUUUz                 ",
"              ;;     P&;UUUUUUU:%c                ",
"              ;;   n:<2-;<UUU:;;2<v               ",
"              ;;  ;<2222<;<;<;2222<               ",
"              ;; ;2222222122112222<<              ",
"              *;g1222122222222222222:             ",
"             $3:4<<<2222122222<2222<<;            ",
"             cY<dk2<22<222222222222222g           ",
"             $Y@ukku<<2222222222212222<           ",
"              .-kgdu<:<2222222222222222;          ",
"              ;;<tK Kf4;<<2<2<222222222;          ",
"              :;    2kkp<2<<1<<<<<2<<<:m          ",
"              ;;    4ggglu,5,<4472274n            ",
"              ;;    tggfga5rw6hkklqfxg            ",
"              ;;   Jdgdfgu5ew5igfg8tkt            ",
"              ;;   8ggdggy9ww9ygfgi7dp            ",
"              ;;   4kdgdgt0we94gfgf7pq            ",
"              ;;   tkddgft9ww06sgfguu2            ",
"              ;;  vdgfdgfq0www5agdgd3L            ",
"              ;;  <kgdfgf70wwe5iggdk<             ",
"              ;;  7gfffgs6wwww9tfdggu             ",
"              ;;  tgfdggs60www9qffggfb            ",
"              ;;  tkdgdgi5wwww06sgdgg2            ",
"              ;; cfgffgga5wwwww5agfgk2            ",
"              ;; :kkfffgy5ww0ww5yfdkx<            ",
"              :;  qkggggu5wwwwe9uhgk8             ",
"              ;;  M4ifggt9eweee07fu2              ",
"              IM    It243599956,:8                ",
"                                                  "
};
