/* XPM */
static char *_38028bb19bc484fc0cdf86be98e5910mJfaCDegz2g5aaqn[] = {
/* columns rows colors chars-per-pixel */
"50 50 239 2 ",
"   c None",
".  c #010103",
"X  c #050300",
"o  c #020006",
"O  c #0A000D",
"+  c #0D060E",
"@  c #150B06",
"#  c #1D0F07",
"$  c #1D0F08",
"%  c #1E1007",
"&  c #0F0713",
"*  c #110514",
"=  c #130617",
"-  c #100917",
";  c #17071B",
":  c #170C1C",
">  c #140E1C",
",  c #1E0C1E",
"<  c #2F1E07",
"1  c #20100A",
"2  c #21110A",
"3  c #23120A",
"4  c #26140A",
"5  c #24120D",
"6  c #2B1F08",
"7  c #2D180D",
"8  c #301F09",
"9  c #341E0E",
"0  c #271410",
"q  c #27111C",
"w  c #341C14",
"e  c #381D15",
"r  c #3A1F1C",
"t  c #3C2D04",
"y  c #3F2812",
"u  c #3D211A",
"i  c #190920",
"p  c #1E0923",
"a  c #180D22",
"s  c #1C0924",
"d  c #1A0E25",
"f  c #1C0E27",
"g  c #1E0D28",
"h  c #171F24",
"j  c #1E1129",
"k  c #1F1330",
"l  c #131832",
"z  c #22092B",
"x  c #200C29",
"c  c #210D2B",
"v  c #260E2A",
"b  c #240A2C",
"n  c #270B2F",
"m  c #221F23",
"M  c #21122F",
"N  c #2A152B",
"B  c #3C1C2F",
"V  c #2A0D34",
"C  c #251333",
"Z  c #2E1033",
"A  c #2A1339",
"S  c #291439",
"D  c #2F103E",
"F  c #2C173E",
"G  c #2C193E",
"H  c #321B37",
"J  c #341638",
"K  c #152123",
"L  c #282435",
"P  c #2D213E",
"I  c #412011",
"U  c #482615",
"Y  c #482616",
"T  c #42231E",
"R  c #563118",
"E  c #6F3F16",
"W  c #431C2C",
"Q  c #4D2428",
"!  c #5B3520",
"~  c #5D3128",
"^  c #462634",
"/  c #4B2730",
"(  c #4D2A38",
")  c #562A39",
"_  c #5F3536",
"`  c #6B3821",
"'  c #6E3A21",
"]  c #633534",
"[  c #683837",
"{  c #6A3D37",
"}  c #663B38",
"|  c #753F3F",
" . c #684215",
".. c #764B19",
"X. c #7C491D",
"o. c #5B443E",
"O. c #445339",
"+. c #7D413E",
"@. c #2F1B46",
"#. c #371741",
"$. c #331A47",
"%. c #321D46",
"&. c #381842",
"*. c #351949",
"=. c #361C4C",
"-. c #3E1A4B",
";. c #3A184C",
":. c #3A184D",
">. c #3F1A4E",
",. c #381E4F",
"<. c #3A1D51",
"1. c #391E51",
"2. c #3C1F54",
"3. c #1B2347",
"4. c #1D2145",
"5. c #1C2347",
"6. c #1E2246",
"7. c #322145",
"8. c #332B46",
"9. c #38214D",
"0. c #363547",
"q. c #3B3C4F",
"w. c #3C2054",
"e. c #3F3F54",
"r. c #273061",
"t. c #273063",
"y. c #283163",
"u. c #283164",
"i. c #293266",
"p. c #471D4B",
"a. c #431C4D",
"s. c #431C50",
"d. c #411F58",
"f. c #4A2245",
"g. c #40264D",
"h. c #4C214D",
"j. c #51274E",
"k. c #5F3340",
"l. c #5F3341",
"z. c #40225A",
"x. c #43215C",
"c. c #4F275A",
"v. c #412C59",
"b. c #44295F",
"n. c #5A2F52",
"m. c #46395C",
"M. c #5F315B",
"N. c #623340",
"B. c #6D3B43",
"V. c #753F41",
"C. c #69395C",
"Z. c #733E52",
"A. c #442460",
"S. c #452460",
"D. c #4A2263",
"F. c #492565",
"G. c #482665",
"H. c #492767",
"J. c #4A2767",
"K. c #4A2668",
"L. c #4B276A",
"P. c #4C276B",
"I. c #4C286B",
"U. c #4D286D",
"Y. c #4F296F",
"T. c #512463",
"R. c #532B6A",
"E. c #443D61",
"W. c #533B67",
"Q. c #542C76",
"!. c #552D76",
"~. c #552E79",
"^. c #582E7B",
"/. c #592C7C",
"(. c #57317C",
"). c #58327C",
"_. c #58337C",
"`. c #59347C",
"'. c #5A357E",
"]. c #563A7E",
"[. c #773F66",
"{. c #773E67",
"}. c #3D4646",
"|. c #38424B",
" X c #2C5A40",
".X c #345B40",
"XX c #3F575A",
"oX c #386144",
"OX c #484B4A",
"+X c #4F445A",
"@X c #614650",
"#X c #454567",
"$X c #4E4460",
"%X c #4A4764",
"&X c #4C4865",
"*X c #4D4D69",
"=X c #465265",
"-X c #475F64",
";X c #544B72",
":X c #554B73",
">X c #564C74",
",X c #7A4365",
"<X c #784069",
"1X c #7C446B",
"2X c #7D406D",
"3X c #486166",
"4X c #4D6B70",
"5X c #4E627D",
"6X c #913C17",
"7X c #833D20",
"8X c #903D24",
"9X c #A63722",
"0X c #D03D21",
"qX c #8D541F",
"wX c #A0441D",
"eX c #946912",
"rX c #BE701E",
"tX c #834325",
"yX c #D5581E",
"uX c #DF781D",
"iX c #F2601B",
"pX c #FF7D16",
"aX c #844757",
"sX c #814268",
"dX c #834771",
"fX c #8E4C74",
"gX c #97537D",
"hX c #BE800F",
"jX c #5C2F80",
"kX c #5A3281",
"lX c #5D3481",
"zX c #5C3581",
"xX c #5E3086",
"cX c #603989",
"vX c #5B4581",
"bX c #5E4E8F",
"nX c #4F6780",
"mX c #546B86",
"MX c #5A7483",
/* pixels */
"                                                                                                    ",
"                                                                                                    ",
"                                                                                                    ",
"                                                                                                    ",
"                                                                                                    ",
"                                                                                                    ",
"                                                                                                    ",
"                                                                                                    ",
"                                                                                                    ",
"                                                                                                    ",
"                                                                                                    ",
"                                                                                                    ",
"                                                                                                    ",
"                                                                                                    ",
"                                              i.i.                                                  ",
"                                              y.5.l                                                 ",
"                                            t.4.@.<.S                                               ",
"                                          t.5.%.^.xXzXj                                             ",
"                                          3.k ~.bX=XMXm                                             ",
"                                          - 1._.5X}.OX3XK                                           ",
"                                          0.zXkX5X=X4X3XK                                           ",
"                                        > e.>X`.+X0.q.mX#XL & +   .X X                              ",
"                                        =.`.&X;XkX(.~.vX*Xb.;.h.^ ! O.                              ",
"                                      = x.xX_.%X;X(.!.$Xo.k.) fX1X0 oX                              ",
"                                      p D.T.-.,.W.+X@Xo.[ M.j.{.C.+                                 ",
"                              pX      N -.sX2XB ~ } ] n.R.!.P.&.V p                                 ",
"                                  6XE ..Q @XgX_ ^ 9.m.v.K.Q.s.c c ;                                 ",
"                                I 7XyXuXE Q p.J *.P }.8.P.S.a   =                                   ",
"                            hXw wX0XiXuXR , c V g G 7.%.F.Y.C                                       ",
"                            < Y tX8X8XqXy S c ; G F.I.Y.z.S.M                                       ",
"                              Y ` E X.eX6 D %.C F.F.d.F.F.,.d                                       ",
"                              @ 1 1 7 t o V ;.w.w.g v a.s.&.>                                       ",
"                                          q p.c.H . 5 N.[.<X(                                       ",
"                                          u Z.dX,Xr X w B.aX] $                                     ",
"                                            T V.| e     4 7 3                                       ",
"                                              # %                                                   ",
"                                                                                                    ",
"                                                                                                    ",
"                                                                                                    ",
"                                                                                                    ",
"                                                                                                    ",
"                                                                                                    ",
"                                                                                                    ",
"                                                                                                    ",
"                                                                                                    ",
"                                                                                                    ",
"                                                                                                    ",
"                                                                                                    ",
"                                                                                                    ",
"                                                                                                    "
};
