/* XPM */
static char *b2b2e675c6344d9498503f5708e4ab3bYpBGMhUfVdXHfxJ0[] = {
/* columns rows colors chars-per-pixel */
"40 57 165 2 ",
"   c None",
".  c #7C0302",
"X  c #840C09",
"o  c #86120C",
"O  c #89140D",
"+  c #8D1C12",
"@  c #942618",
"#  c #932A19",
"$  c #932416",
"%  c #A23C25",
"&  c #C50100",
"*  c #C90503",
"=  c #C70806",
"-  c #CB0A06",
";  c #C90E0B",
":  c #D00F08",
">  c #CB130E",
",  c #D4130B",
"<  c #D6190E",
"1  c #D91B0F",
"2  c #CA1411",
"3  c #CC1B11",
"4  c #CB1B19",
"5  c #DB1D10",
"6  c #CE2113",
"7  c #D02117",
"8  c #DD2112",
"9  c #D32F1C",
"0  c #D9301C",
"q  c #E12615",
"w  c #E22816",
"e  c #E42B19",
"r  c #E82F1B",
"t  c #EB341D",
"y  c #CC2421",
"u  c #CE2C29",
"i  c #D12923",
"p  c #D1342E",
"a  c #DF3A2C",
"s  c #F33C22",
"d  c #A34128",
"f  c #A8472A",
"g  c #AD5230",
"h  c #B15936",
"j  c #FF7D1C",
"k  c #D94A2C",
"l  c #DC5834",
"z  c #F54125",
"x  c #F84226",
"c  c #F64729",
"v  c #FA4729",
"b  c #FF4E2E",
"n  c #FF512E",
"m  c #FF592A",
"M  c #E54230",
"N  c #FE5332",
"B  c #FE5935",
"V  c #FC5A3A",
"C  c #DF613B",
"Z  c #FF6325",
"A  c #FF6923",
"S  c #FE653B",
"D  c #BC6F42",
"F  c #D34944",
"G  c #D65E5A",
"H  c #D85C53",
"J  c #FB6244",
"K  c #FC6B42",
"L  c #E77746",
"P  c #FF7543",
"I  c #FE7947",
"U  c #FD7C49",
"Y  c #FB734B",
"T  c #F7745A",
"R  c #F8785E",
"E  c #D76967",
"W  c #D96D69",
"Q  c #D9736F",
"!  c #F67D67",
"~  c #FF9B0F",
"^  c #FF8B15",
"/  c #FF8319",
"(  c #FF9B11",
")  c #FFA30D",
"_  c #FFB707",
"`  c #FFBE04",
"'  c #FFB009",
"]  c #FFB718",
"[  c #FFAE3B",
"{  c #FFC302",
"}  c #FFCB01",
"|  c #FFCD0C",
" . c #FFCF13",
".. c #FDCD1A",
"X. c #FED11C",
"o. c #FDC62A",
"O. c #FFD626",
"+. c #FDD42A",
"@. c #FBD63B",
"#. c #C8844F",
"$. c #CC8852",
"%. c #D39658",
"&. c #D49B5A",
"*. c #FD844D",
"=. c #FE8E53",
"-. c #EB945A",
";. c #ED9A5F",
":. c #FE9556",
">. c #FD9D5B",
",. c #FBA647",
"<. c #EEA55F",
"1. c #FDA35F",
"2. c #F5836C",
"3. c #F6896B",
"4. c #FC9D60",
"5. c #F58C76",
"6. c #F38E7A",
"7. c #F4927D",
"8. c #DEAB64",
"9. c #EEA561",
"0. c #EFAC64",
"q. c #FEA760",
"w. c #F1AB63",
"e. c #FDAE68",
"r. c #FDAE65",
"t. c #E6BB6D",
"y. c #E8BE6E",
"u. c #E4B66A",
"i. c #F3B66A",
"p. c #FCBB6B",
"a. c #F8B265",
"s. c #F8DA55",
"d. c #E9C26E",
"f. c #FFC46D",
"g. c #F7DD65",
"h. c #F8DE62",
"j. c #F7DE6A",
"k. c #F8DF6F",
"l. c #ECC774",
"z. c #F6C070",
"x. c #FECB73",
"c. c #F7CB75",
"v. c #FCD477",
"b. c #F5D67A",
"n. c #F9D178",
"m. c #F5DB7B",
"M. c #FCDE7E",
"N. c #DD8A85",
"B. c #F19C8A",
"V. c #F39986",
"C. c #F2A693",
"Z. c #F2AA96",
"A. c #FDE482",
"S. c #FFEF85",
"D. c #F7E98F",
"F. c #FFEF8B",
"G. c #FCE58F",
"H. c #FFF287",
"J. c #FFF086",
"K. c #FFF186",
"L. c #FFF289",
"P. c #FFF28E",
"I. c #FFF288",
"U. c #FEF190",
"Y. c #F8E8A5",
/* pixels */
"                D.                                                              ",
"                  X.O.                                                          ",
"                  X.}  .g.                                                      ",
"                    | } | @.                                                    ",
"                    +.} } } ..s.                                                ",
"                    h.| } } } } @.                                              ",
"                       .{ ( ) { } ..j.                                          ",
"                      +.^ n n / { } | @.                                        ",
"                      o.A n b b ^ } } } +.                                      ",
"                      [ n b b b m ' } } } +.                                    ",
"                        n n b n b / } { } } O.                                  ",
"                        N b b b b Z ` } } } } }                                 ",
"                      C.N n b b n b ) } } } } }  .k.                            ",
"                      Z.B n n b n b j { } ` ^ ~ `  .                            ",
"                      Z.B n b b b b m ' } ) b b A ( ..                          ",
"                      6.n n n b b n n A ) ) n b n n j ]                         ",
"                        b n b n n b b b n m n b b b b Z ,.                      ",
"                      J b b b b b n N b b n n n b n b b n 3.                    ",
"                      N b b b n n B e.>.S B b b b b b b b B Z.                  ",
"                      V b b n v b N x.L.M.p.*.B b b b b b b J                   ",
"                      V b N n 5 1 c f.H.H.H.S.x.=.B b n b b b 5.T V.            ",
"                    C.N b b n 5 & , i.H.S.S.S.J.S.x.*.N b b b B N 5.            ",
"                    2.b b b N 8 & = 9.H.J.S.S.S.S.S.A.r.S b b b b R             ",
"                    J b b b b e & & ;.H.S.S.S.J.S.S.S.H.v.U b n b V             ",
"                    N n b n b q & & ;.H.S.S.S.S.S.S.S.S.J.M.:.n b N             ",
"                    n n b b n q & = <.H.S.J.S.S.S.S.S.J.J.J.S.>.N b             ",
"                  B b b n n b 5 & = <.H.S.S.J.S.S.S.S.S.S.S.J.S.:.b             ",
"                  B b b b b b < & = a.J.J.S.S.S.S.J.S.S.S.S.S.S.A.I T           ",
"                2.N b b n b v : & > z.H.S.S.J.S.S.J.S.S.S.S.S.S.H.x.Y           ",
"                n b b n b n z * & 3 b.H.S.S.S.S.S.S.S.S.S.S.J.S.S.S.r.          ",
"                N b b b b N r & & 9 m.J.J.S.S.S.S.S.S.J.S.J.S.S.S.S.M.          ",
"              2.b b b b b b < & & k S.S.S.S.S.J.S.S.S.S.S.S.S.S.S.S.S.Y.        ",
"              J n n b b n s - & & L H.S.S.S.S.S.S.S.S.S.H.S.S.S.S.S.S.U.        ",
"            5.n b n b b b 8 & & = 9.H.S.S.S.S.S.S.H.S.S.S.S.S.S.S.S.H.D.        ",
"            J b b b b b s = & & 3 v.H.S.S.S.S.S.S.S.H.S.S.S.S.S.H.H.H.L.        ",
"            b b n b n b 5 & & & l S.S.S.S.S.S.S.S.d.8.S.S.S.S.S.d.t.H.S.        ",
"          N b n b b b e & & & - <.H.H.S.S.S.S.H.A.f . 8.H.H.S.S.h g S.S.U.      ",
"        7.N n n b b t & & & & k A.J.S.S.S.S.S.S.m.# . d M.J.H.m.# @ b.H.P.      ",
"          B b n b v , & & & 2 i.H.S.S.S.S.S.S.H.m.# . O d.H.H.d.o o t.L.S.      ",
"          ! b n b n t = & - -.L.S.J.S.S.S.S.S.S.M.% . . %.H.H.&.. X 8.L.S.      ",
"            J n b b b q & - ;.L.S.S.S.S.S.S.S.S.S.h . . D S.L.$.. + l.H.S.G.    ",
"            V.N b n b b 1 & 3 0.L.S.H.S.S.S.S.S.H.u.% $ %.H.H.u.% #.S.S.S.4.B.  ",
"              B b b b n v < & 6 i.L.S.S.S.S.S.S.S.S.m.b.S.S.S.S.M.S.H.H.p.B     ",
"                N b n b n v < & 6 w.H.S.S.S.S.H.S.S.S.S.S.S.S.S.H.H.H.p.V V     ",
"                J b n b n n v q * > -.S.H.S.S.S.S.S.S.S.S.S.S.H.H.A.1.N B       ",
"                N b n n b b b b t , ; C c.S.H.S.S.S.S.S.H.H.H.A.p.I N J         ",
"                V b b n n b n b b v t 5 0 L p.A.S.S.S.A.M.x.q.I b s a           ",
"                N b b b n n b b b b N b v x v S P U U P S B b x 8 = * Q         ",
"              B.N b b n z z b b b b b b b b b b b b b b b s q - & & & y         ",
"              2.b b b t - - e b N n b b b b b b b n b s w - & & & & & & G       ",
"              B n b e * & & & < r w e M               i & & & & & & & & 2       ",
"              N z 5 & & & & & & = u E                   7 > * & & & & & =       ",
"              e - & & & & & & 3 E                             y 2 * & & *       ",
"            p & & & & & & ; F                                       u 4 & p     ",
"          N.> & & & & * y Q                                             W G     ",
"          u & & & * >                                                           ",
"          H H F p                                                               "
};
