/* XPM */
static char *_dfb1b27ce854334e1f2b55cda1185bczTFJD8HF0ueJttu7[] = {
/* columns rows colors chars-per-pixel */
"50 50 163 2 ",
"   c None",
".  c #00000A",
"X  c #00001F",
"o  c #000529",
"O  c #040428",
"+  c #001E2B",
"@  c #031334",
"#  c #091436",
"$  c #001934",
"%  c #141C31",
"&  c #002738",
"*  c #1D213F",
"=  c #29273C",
"-  c #29283C",
";  c #2A293D",
":  c #2B2B3D",
">  c #282A3E",
",  c #2B2A3E",
"<  c #2C2B3F",
"1  c #041443",
"2  c #041642",
"3  c #002A44",
"4  c #092C40",
"5  c #00354B",
"6  c #003D52",
"7  c #003E54",
"8  c #242640",
"9  c #2B2B40",
"0  c #2C2B40",
"q  c #2D2C40",
"w  c #2E2D41",
"e  c #2E2E41",
"r  c #2F2D42",
"t  c #2C2F43",
"y  c #2E2E42",
"u  c #2F2E42",
"i  c #302F43",
"p  c #313044",
"a  c #303045",
"s  c #323145",
"d  c #323245",
"f  c #323246",
"g  c #333246",
"h  c #343346",
"j  c #343347",
"k  c #333449",
"l  c #353448",
"z  c #343449",
"x  c #363448",
"c  c #363548",
"v  c #363549",
"b  c #36364A",
"n  c #37364A",
"m  c #38374B",
"M  c #39374D",
"N  c #39384C",
"B  c #3A394D",
"V  c #383B4D",
"C  c #3B3A4C",
"Z  c #3B3A4D",
"A  c #383B4F",
"S  c #3B3A4E",
"D  c #3C394D",
"F  c #3C3B4F",
"G  c #3F3D4E",
"H  c #2B3855",
"J  c #2B3A59",
"K  c #393853",
"L  c #3C3B50",
"P  c #3D3C50",
"I  c #3D3D51",
"U  c #3F3C50",
"Y  c #3E3D51",
"T  c #3F3F53",
"R  c #323D5B",
"E  c #343E5B",
"W  c #403F53",
"Q  c #62394B",
"!  c #004154",
"~  c #16485C",
"^  c #394155",
"/  c #3E435E",
"(  c #424153",
")  c #414054",
"_  c #424055",
"`  c #424155",
"'  c #424256",
"]  c #434256",
"[  c #424257",
"{  c #444354",
"}  c #444357",
"|  c #454456",
" . c #494252",
".. c #454458",
"X. c #464558",
"o. c #464559",
"O. c #47465A",
"+. c #4A4559",
"@. c #4B475B",
"#. c #49485A",
"$. c #49485C",
"%. c #4A495D",
"&. c #4B495F",
"*. c #4B4A5E",
"=. c #4C495E",
"-. c #4C4B5F",
";. c #4D4C60",
":. c #4E4C60",
">. c #4E4D61",
",. c #4E4E62",
"<. c #4F4E62",
"1. c #4F4F63",
"2. c #4F4F64",
"3. c #504F63",
"4. c #524F62",
"5. c #544F63",
"6. c #504F64",
"7. c #515064",
"8. c #535065",
"9. c #525165",
"0. c #535165",
"q. c #525266",
"w. c #535266",
"e. c #545367",
"r. c #555367",
"t. c #575266",
"y. c #565367",
"u. c #555465",
"i. c #565466",
"p. c #555468",
"a. c #555568",
"s. c #565569",
"d. c #57566A",
"f. c #5A5468",
"g. c #5A5569",
"h. c #58576B",
"j. c #59586C",
"k. c #5A596D",
"l. c #5B5A6E",
"z. c #5C596C",
"x. c #5C5B6F",
"c. c #4D5770",
"v. c #495871",
"b. c #646472",
"n. c #686875",
"m. c #6A6876",
"M. c #75757F",
"N. c #A30B12",
"B. c #892533",
"V. c #BC282A",
"C. c #AB2230",
"Z. c #D41013",
"A. c #F91F2B",
"S. c #FF2227",
"D. c #FF4048",
"F. c #FF5D6C",
"G. c #FF5B75",
"H. c #FF6676",
"J. c #FF6D7E",
"K. c #727280",
"L. c #7D7D85",
"P. c #7E7E88",
"I. c #B8A2A2",
/* pixels */
"                                                                                                    ",
"                                                u ..` (                                             ",
"                                              u x.9.d.m                                             ",
"                                              3.9.7.9.-.                                            ",
"                                            s d.3.9.w.d.                                            ",
"                                            ` 9.9., , #.j                                           ",
"                                            *...+., , t v                                           ",
"                                          u j P ^ $ , 3 V                                           ",
"                                              B ! F.J.H.5                                           ",
"                                              6 G.V.N.S.Q                                           ",
"                                            C ~ D.N.A.Z.7 M                                         ",
"                                            W 8.+ C.B.& c.D                                         ",
"                                            ` w.v., & j w...                                        ",
"                                          { -.9.g.0 u h.w.3.u j u j                                 ",
"                                  , B *.3.M 6.6.y., , -.9.3.W h.w.9.9.B                             ",
"                              u -.h.9.9.w.D -.w.j., , 9.9.} W 9.3.6.9.h.`                           ",
"                            , <.d.<.<.3.7.+.B P ` < 0 m B ` <.3.3.3.3.9.<.                          ",
"                              u 9.d.9.9.3.9.9.-.7., , *.w.9.9.<.9.9.d.u.,                           ",
"                                  B ` 9.w.w.6.w.z., , y.w.;.<.w.<.P v                               ",
"                                      L.c W H 2 2 , , # O 8  .                                      ",
"                                            I.I.I., , I.I.I.k                                       ",
"                                          n.o % K , , I.I.I.@                                       ",
"                                          j j s i , , X . 8 v s                                     ",
"                                        s z z j v , , j v j z v i                                   ",
"                                      i j v j v j , , s v v j v j                                   ",
"                                      i v j v j v , u j v j v j j s                                 ",
"                                    u j j v j v j , u s j v j v j j K.                              ",
"                                    s j v j v j v , u s v j v j v j s                               ",
"                                  u.j v j v j v v , , j j v j v v j s                               ",
"                                  u v j v j v j j , , j v j v j j v v u                             ",
"                                    i s j j j z v , , j v s j v v j v i                             ",
"                                      B m j j s , , , i u u u u i i u                               ",
"                                    L.<...-.9.9./ , , *.-.*.*.9.v                                   ",
"                                    n.d.-.} 9.J I.I., [ 9.9.3.9.<.                                  ",
"                                    B u.9.` ..R I.I., ` 9.<.3.3.9.D                                 ",
"                                    L 9.3.6.+.L E , , 6.9.3.3.3.9.m                                 ",
"                                    ..9.3.3.9.<.+., , -.9.<.3.3.9.*.M.                              ",
"                                  : 7.7.3.3.<.3.j., , <.9.2.3.3.9.9.,                               ",
"                                  s d.3.3.3.3.3.e., , *.9.3.3.3.2.9.P                               ",
"                                  P 9.3.3.3.3.3.e., , <.9.3.3.3.7.9.-.                              ",
"                                  *.9.6.3.3.3.3.u., , -.9.7.<.7.3.3.9.|                             ",
"                                  2.9.<.3.3.3.3.e., , <.9.<.7.<.3.9.w.u                             ",
"                                9 9.9.<.3.3.3.3.e., , -.9.<.1.7.3.3.d.v                             ",
"                                u k.9.9.3.3.3.3.e., , -.9.7.1.<.3.9.k.,                             ",
"                                  m d.w.9.9.3.<.e., , *.9.9.1.9.d.3.v                               ",
"                                    = B <.y.w.d.x., , 9.j.9.<.*.s ,                                 ",
"                                          b.u , s , u s u +.                                        ",
"                                                  , ,                                               ",
"                                                  , ,                                               ",
"                                                                                                    "
};
