/* XPM */
static char *result[] = {
/* columns rows colors chars-per-pixel */
"57 53 126 2 ",
"   c #4B2F1C",
".  c #54341D",
"X  c #58361F",
"o  c #643B1F",
"O  c #4F3522",
"+  c #5D3920",
"@  c #633D22",
"#  c #683F22",
"$  c #5C412F",
"%  c #654026",
"&  c #6D4121",
"*  c #6A462A",
"=  c #69492F",
"-  c #724524",
";  c #7B4A26",
":  c #7D4E2C",
">  c #7F502E",
",  c #6E4C34",
"<  c #7A4F30",
"1  c #775135",
"2  c #7B5234",
"3  c #75533B",
"4  c #79563C",
"5  c #695345",
"6  c #785740",
"7  c #7A5A44",
"8  c #765D4C",
"9  c #7C5F4A",
"0  c #7D624F",
"q  c #776051",
"w  c #7D6555",
"e  c #7F6857",
"r  c #7D6A5D",
"t  c #7F7067",
"y  c #824E26",
"u  c #814F2A",
"i  c #8C5227",
"p  c #855129",
"a  c #8B5329",
"s  c #935527",
"d  c #935629",
"f  c #96592B",
"g  c #9C5C2B",
"h  c #825633",
"j  c #8C5C35",
"k  c #8C5E38",
"l  c #915B30",
"z  c #A15F2C",
"x  c #89623E",
"c  c #9B673C",
"v  c #9C6A3E",
"b  c #A4612E",
"n  c #AC652F",
"m  c #B0672F",
"M  c #B2682F",
"N  c #A56533",
"B  c #AE6630",
"V  c #AB6936",
"C  c #A56E3F",
"Z  c #A86D3D",
"A  c #B06730",
"S  c #B56A31",
"D  c #B86C32",
"F  c #876547",
"G  c #836449",
"H  c #87694D",
"J  c #8E6B4B",
"K  c #946840",
"L  c #9A6E45",
"P  c #946E4B",
"I  c #9B724B",
"U  c #856950",
"Y  c #836C5C",
"T  c #A4764B",
"R  c #A4794F",
"E  c #B17E4F",
"W  c #AD7F52",
"Q  c #867163",
"!  c #8A7567",
"~  c #8A7669",
"^  c #8C796B",
"/  c #8D7C70",
"(  c #917F72",
")  c #B38454",
"_  c #BE8C57",
"`  c #B68758",
"'  c #BC8B59",
"]  c #938276",
"[  c #96867B",
"{  c #97887E",
"}  c #98897E",
"|  c #C18E5A",
" . c #C2905C",
".. c #CC965D",
"X. c #CE985E",
"o. c #CA9660",
"O. c #CE9963",
"+. c #D39D63",
"@. c #D7A065",
"#. c #D9A267",
"$. c #D6A168",
"%. c #DCA56A",
"&. c #DFA86D",
"*. c #E0A86C",
"=. c #E6AE71",
"-. c #9B8C83",
";. c #9E9087",
":. c #9F9289",
">. c #A1958D",
",. c #A69A93",
"<. c #A89D95",
"1. c #AB9F98",
"2. c #AEA39C",
"3. c #B1A69F",
"4. c #B1A7A1",
"5. c #B5ABA5",
"6. c #B6ADA8",
"7. c #B8AFA9",
"8. c #BCB4AF",
"9. c #BFB7B3",
"0. c #BEB8B4",
"q. c #C5BEBA",
"w. c #CBC5C2",
"e. c #D1CCC9",
"r. c #DCD9D7",
"t. c None",
/* pixels */
"t.t.t.t.t.t.t.t.t.t.t.t.t.t.t.t.t.t.t.t.t.t.t.t.t.t.t.t.t.t.t.t.t.t.t.t.t.t.t.t.t.t.t.t.t.t.t.t.t.t.t.t.t.t.t.t.t.",
"t.t.t.t.t.t.t.t.t.t.t.t.t.t.t.t.t.t.t.t.t.t.t.t.t.t.t.t.t.t.t.t.t.t.t.t.t.t.t.t.t.t.t.t.t.t.t.t.t.t.t.t.t.t.t.t.t.",
"t.t.t.t.t.t.t.t.t.t.t.t.t.t.t.t.t.t.t.t.t.t.t.t.t.t.t.t.t.t.t.t.t.t.t.t.t.t.t.t.t.t.t.t.t.t.t.t.t.t.t.t.t.t.t.t.t.",
"t.t.t.t.t.t.t.t.t.t.t.t.t.t.t.t.t.t.t.t.t.t.t.t.t.t.t.t.t.t.t.t.t.t.t.t.t.t.t.t.t.t.t.t.t.t.t.t.t.t.t.t.t.t.t.t.t.",
"t.t.t.t.t.t.t.t.t.t.t.t.t.t.t.t.t.t.t.t.t.t.t.t.t.t.t.t.t.t.t.t.t.t.t.t.t.t.t.t.t.t.t.t.t.t.t.t.t.t.t.t.t.t.t.t.t.",
"t.t.t.t.t.t.t.t.t.t.t.t.t.t.t.t.t.t.t.t.t.t.t.t.t.t.t.t.t.t.t.t.t.t.t.t.t.t.t.t.t.t.t.t.t.t.t.t.t.t.t.t.t.t.t.t.t.",
"t.t.t.t.t.t.t.t.t.t.t.t.t.t.t.t.t.t.t.t.t.t.t.t.t.t.t.t.t.t.t.t.t.t.t.t.t.t.t.t.t.t.t.t.t.t.t.t.t.t.t.t.t.t.t.t.t.",
"t.t.t.t.t.t.t.t.t.t.t.t.t.t.t.t.t.t.t.t.t.t.t.t.t.t.t.[ ] ( [ } t.t.t.t.t.t.t.t.t.t.t.t.t.t.t.t.t.t.t.t.t.t.t.t.t.",
"t.t.t.t.t.t.t.t.t.t.t.t.t.t.t.t.t.t.t.t.t.t.t.t.P R ) _  . . .' ) R P H Y } t.t.t.t.t.t.t.t.t.t.t.t.t.t.t.t.t.t.t.",
"t.t.t.t.t.t.t.t.t.t.t.t.t.t.t.t.t.t.t.t.t.t.) +.%.#.#.+.+.+.+.+.#.#.#.#.O.' I H [ t.t.t.t.t.t.t.t.t.t.t.t.t.t.t.t.",
"t.t.t.t.t.t.t.t.t.t.t.t.t.t.t.t.t.t.t.t. .#.+.+.+.@.#.%.%.%.*.%.#.#.@.@.+.@.@.@.' J ~ t.t.t.t.t.t.t.t.t.t.t.t.t.t.",
"t.t.t.t.t.t.t.t.t.t.t.t.t.t.t.t.t.t.' #.+.+.#.%.%.#.#.#.#.#.#.+.@.#.#.%.%.%.@.X.+.#.' G t.t.t.t.t.t.t.t.t.t.t.t.t.",
"t.t.t.t.t.t.t.t.t.t.t.t.t.t.t.t.t.@.+.+.*.%.#.%.%.@.+.X.X.X.....X.+.%.*.#.+.%.=.%...+.%.F t.t.t.t.t.t.t.t.t.t.t.t.",
"t.t.t.t.t.t.t.t.t.t.t.t.t.t.t.t.&.%...*.=.#.#.#.#.#.+.+.+.+.+.+.+.#.#.#.#.#.&.%.#.X.%.=.I t.t.t.t.t.t.t.t.t.t.t.t.",
"t.t.t.t.t.t.t.t.t.t.t.t.t.t.t.* ) %.#.+.X.#.#.%.%.*.*.*.*.%.*.*.%.%.#.@.+.` L ) +.+.) K * t.t.t.t.t.t.t.t.t.t.t.t.",
"t.t.t.t.t.t.t.t.t.t.t.t.t.t.t.b a j E o.#.#.+.| | X.+.X.+.+.X.+.+.+.@.#.%.+.3 O , h - g d { t.t.t.t.t.t.t.t.t.t.t.",
"t.t.t.t.t.t.t.t.t.t.t.t.t.t.t.m B f B N L L x T +.#.*.*.*.*.%.%.+.O. .W L k u   O B a z b U t.t.t.t.t.t.t.t.t.t.t.",
"t.t.t.t.t.t.t.t.t.t.t.t.t.t.9 m B f D D D & y B V Z T K N L c h l l l g b B B + u D f b n 9 t.t.t.t.t.t.t.t.t.t.t.",
"t.t.t.t.t.t.t.t.t.t.t.t.t.t.9 m B g D D D - g D D D D f g D A ; z D D D D D S - b D f b S 4 t.t.t.t.t.t.t.t.t.t.t.",
"t.t.t.t.t.t.t.t.t.t.t.t.t.t.9 m S g D D D p B D D D D z z D S ; B D D D D D S g D D z z D 1 t.t.t.t.t.t.t.t.t.t.t.",
"t.t.t.t.t.t.t.t.t.t.t.t.t.t.9 m S g D D D f B D D D D z z D S ; B D S D D D D D D D b b D < e.t.t.t.t.t.t.t.t.t.t.",
"t.t.t.t.t.t.t.t.t.t.t.t.t.t.7 m A N D D D S D D D D D B B D S y B D D D D D D D D D N b D u w.t.t.t.t.t.t.t.t.t.t.",
"t.t.t.t.t.t.t.t.t.t.t.t.t.t.4 A S b S D D D D D D D D B S D S y B D D D D D D D D D B b D u q.t.t.t.t.t.t.t.t.t.t.",
"t.t.t.t.t.t.t.t.t.t.t.t.t.t.2 D S b D D D D D D D D D D S D A u B D D D D D S D D D S b D h q.t.t.t.t.t.t.t.t.t.t.",
"t.t.t.t.t.t.t.t.t.t.t.t.t.t.u D D B S D D D D D D D D D D D B y A D D D D D D D D D S B D p 9.t.t.t.t.t.t.t.t.t.t.",
"t.t.t.t.t.t.t.t.t.t.t.t.t.4.a D S N D D D D D D D D D D D D S y S D D D D D D D D D S S D p 5.t.t.t.t.t.t.t.t.t.t.",
"t.t.t.t.t.t.t.t.t.t.t.t.t.-.d D D B S D D D D D D D D D D D S - b D D D D D D D D D D D D a 5.t.t.t.t.t.t.t.t.t.t.",
"t.t.t.t.t.t.t.t.t.t.t.t.t.Y z D D B S D D D D D D D D D D D S - N D D D S D D D S D D D D a 5.t.t.t.t.t.t.t.t.t.t.",
"t.t.t.t.t.t.t.t.t.t.t.t.t.4 B D D D D D z z D D D D D D D D B ; B D D D D D D D D D D D D p 3.t.t.t.t.t.t.t.t.t.t.",
"t.t.t.t.t.t.t.t.t.t.t.t.7.u D D D D D D d g D D D D D D D D A p S D D D D D D D D D D D D f Y t.t.t.t.t.t.t.t.t.t.",
"t.t.t.t.t.t.t.t.t.t.t.t.^ f D D D D D D a B D D D D D D D D A f D D B S D D D S D D D D D D p [ t.t.t.t.t.t.t.t.t.",
"t.t.t.t.t.t.t.t.t.t.t.t.< S D D D D D S y B D D D D D D D D A N D D f l D D D f B D D S D D S u -.t.t.t.t.t.t.t.t.",
"t.t.t.t.t.t.t.t.t.t.t.~ f D D D D D D B p S D D D D D b b D S S S D g f D D D d f D D D D D D S y ^ t.t.t.t.t.t.t.",
"t.t.t.t.t.t.t.t.t.t.-.: S D D D D D D s a D D D S D D s N D D S D D N a D D D B : S D D D D D D M s w t.t.t.t.t.t.",
"t.t.t.t.t.t.t.t.t.Y u S D D D D D D n % b D D D D D D p B D D D D D b p D D D S a ; f b S D D D D D z 2 ;.t.t.t.t.",
"t.t.t.t.t.t.0 2 p z S D D D D D S g % @ S D D D D D B a S D D D D D A y S D D D S ; O 3 2 p a f g g g s o >.t.t.t.",
"t.t.t.t.Q ; i i f z m S D M m f > Q t y D D D D D D g f D D D D D D S & g D D D D S y r 0.t.1.-.] ] ( [ -.t.t.t.t.",
"t.t.t.] # 4 } ,.-.! 9 2 h 2 7 ( t.t.Y b D D D D D S p B D D D D D D p w 3 z D D D D S d U t.t.t.t.t.t.t.t.t.t.t.t.",
"t.t.t.$ 8 t.t.t.t.t.t.t.t.t.t.t.t.t.< S D D D D D g d D D D D D D d Q t.w.0 p M D D D D g 1 -.t.t.t.t.t.t.t.t.t.t.",
"t.t.t.t.t.t.t.t.t.t.t.t.t.t.t.t.t.~ f D D D D D f - B D D D D D b 7 r.t.t.t.} 1 d A D D D S a 3 { t.t.t.t.t.t.t.t.",
"t.t.t.t.t.t.t.t.t.t.t.t.t.t.t.t.t.: S D D D n y 8 , A D D D D D > 6.t.t.t.t.t.t.[ 7 y s b A S m s 1 Y 3.t.t.t.t.t.",
"t.t.t.t.t.t.t.t.t.t.t.t.t.t.t.t.Y z D D n p 7 ,.t.] d D D D D b w t.t.t.t.t.t.t.t.t.t.-.Y 7 1 p p p - + ,.t.t.t.t.",
"t.t.t.t.t.t.t.t.t.t.t.t.t.t.t.>.p D n i 4 ;.t.t.t.t.1 m D D D s >.t.t.t.t.t.t.t.t.t.t.t.t.t.t.t.t.t.4.2.t.t.t.t.t.",
"t.t.t.t.t.t.t.t.t.t.t.t.t.t.t.1 n f 1 -.t.t.t.t.t.t.,.: S D D p t.t.t.t.t.t.t.t.t.t.t.t.t.t.t.t.t.t.t.t.t.t.t.t.t.",
"t.t.t.t.t.t.t.t.t.t.t.t.t.t.7 s : ~ t.t.t.t.t.t.t.t.t.} y S D p t.t.t.t.t.t.t.t.t.t.t.t.t.t.t.t.t.t.t.t.t.t.t.t.t.",
"t.t.t.t.t.t.t.t.t.t.t.t.t.q & 7 t.t.t.t.t.t.t.t.t.t.t.t.} : A f [ t.t.t.t.t.t.t.t.t.t.t.t.t.t.t.t.t.t.t.t.t.t.t.t.",
"t.t.t.t.t.t.t.t.t.t.t.t.t.5 { t.t.t.t.t.t.t.t.t.t.t.t.t.t.t.1 d 7 t.t.t.t.t.t.t.t.t.t.t.t.t.t.t.t.t.t.t.t.t.t.t.t.",
"t.t.t.t.t.t.t.t.t.t.t.t.t.t.t.t.t.t.t.t.t.t.t.t.t.t.t.t.t.t.t.9 o :.t.t.t.t.t.t.t.t.t.t.t.t.t.t.t.t.t.t.t.t.t.t.t.",
"t.t.t.t.t.t.t.t.t.t.t.t.t.t.t.t.t.t.t.t.t.t.t.t.t.t.t.t.t.t.t.t.[ t.t.t.t.t.t.t.t.t.t.t.t.t.t.t.t.t.t.t.t.t.t.t.t.",
"t.t.t.t.t.t.t.t.t.t.t.t.t.t.t.t.t.t.t.t.t.t.t.t.t.t.t.t.t.t.t.t.t.t.t.t.t.t.t.t.t.t.t.t.t.t.t.t.t.t.t.t.t.t.t.t.t.",
"t.t.t.t.t.t.t.t.t.t.t.t.t.t.t.t.t.t.t.t.t.t.t.t.t.t.t.t.t.t.t.t.t.t.t.t.t.t.t.t.t.t.t.t.t.t.t.t.t.t.t.t.t.t.t.t.t.",
"t.t.t.t.t.t.t.t.t.t.t.t.t.t.t.t.t.t.t.t.t.t.t.t.t.t.t.t.t.t.t.t.t.t.t.t.t.t.t.t.t.t.t.t.t.t.t.t.t.t.t.t.t.t.t.t.t.",
"t.t.t.t.t.t.t.t.t.t.t.t.t.t.t.t.t.t.t.t.t.t.t.t.t.t.t.t.t.t.t.t.t.t.t.t.t.t.t.t.t.t.t.t.t.t.t.t.t.t.t.t.t.t.t.t.t."
};
