/* XPM */
static char *ee69a3517ba04ef9c3386b9e3af5cf33hEZuSg4Yln5MzeZj[] = {
/* columns rows colors chars-per-pixel */
"50 50 166 2 ",
"   c None",
".  c black",
"X  c #00010E",
"o  c #030824",
"O  c #00023A",
"+  c #061431",
"@  c #201E33",
"#  c #211E33",
"$  c #201F33",
"%  c #212034",
"&  c #212035",
"*  c #222135",
"=  c #222235",
"-  c #232236",
";  c #252438",
":  c #262539",
">  c #27263A",
",  c #28273B",
"<  c #2F253C",
"1  c #27283D",
"2  c #29283C",
"3  c #29293D",
"4  c #2B2A3E",
"5  c #2C2B3F",
"6  c #31323B",
"7  c #5B2638",
"8  c #112D41",
"9  c #2A2A40",
"0  c #2D2B40",
"q  c #2E2B40",
"w  c #2D2C40",
"e  c #2E2D41",
"r  c #2F2D41",
"t  c #2E2E41",
"y  c #2E2D42",
"u  c #2E2E42",
"i  c #2F2E42",
"p  c #2F2F44",
"a  c #302E41",
"s  c #302F43",
"d  c #362D41",
"f  c #372D41",
"g  c #352C47",
"h  c #303043",
"j  c #313044",
"k  c #323145",
"l  c #333246",
"z  c #343347",
"x  c #363346",
"c  c #343348",
"v  c #353448",
"b  c #363549",
"n  c #37364A",
"m  c #37374B",
"M  c #35354E",
"N  c #38374B",
"B  c #3A394A",
"V  c #39384C",
"C  c #3A384D",
"Z  c #3A394D",
"A  c #3B3A4E",
"S  c #3C3A4F",
"D  c #3C3B4F",
"F  c #353950",
"G  c #3D3C50",
"H  c #3D3D51",
"J  c #3E3D51",
"K  c #3F3E52",
"L  c #3C3B58",
"P  c #403F53",
"I  c #404053",
"U  c #414054",
"Y  c #424155",
"T  c #434256",
"R  c #444357",
"E  c #454357",
"W  c #444358",
"Q  c #454458",
"!  c #444459",
"~  c #464559",
"^  c #47465A",
"/  c #47465B",
"(  c #49475C",
")  c #4A445F",
"_  c #47495E",
"`  c #49485C",
"'  c #49495D",
"]  c #4A495D",
"[  c #4B4A5E",
"{  c #4A4A5F",
"}  c #4C4B5F",
"|  c #4E4D5D",
" . c #4F4F5E",
".. c #4E4E5F",
"X. c #554F5E",
"o. c #454460",
"O. c #4A4660",
"+. c #4B4760",
"@. c #4D4C60",
"#. c #4E4D61",
"$. c #4F4D62",
"%. c #4F4E62",
"&. c #4F4E64",
"*. c #504F63",
"=. c #525162",
"-. c #515064",
";. c #525165",
":. c #535266",
">. c #535366",
",. c #525367",
"<. c #545265",
"1. c #545367",
"2. c #555468",
"3. c #565568",
"4. c #575469",
"5. c #565569",
"6. c #57566A",
"7. c #58576A",
"8. c #58576B",
"9. c #595968",
"0. c #5A5A69",
"q. c #5C5969",
"w. c #59586C",
"e. c #5A586D",
"r. c #5A596D",
"t. c #5B5A6E",
"y. c #5C5B6F",
"u. c #5F5F6F",
"i. c #5D5C70",
"p. c #5F5E72",
"a. c #6B5E6D",
"s. c #60606E",
"d. c #616074",
"f. c #656478",
"g. c #6D6C7B",
"h. c #69687C",
"j. c #D70008",
"k. c #DA101A",
"l. c #FA090D",
"z. c #D91421",
"x. c #FF1F29",
"c. c #D2232F",
"v. c #D7232F",
"b. c #FD232F",
"n. c #FF232E",
"m. c #FF696E",
"M. c #FF837A",
"N. c #6E6D81",
"B. c #717080",
"V. c #747480",
"C. c #737085",
"Z. c #727185",
"A. c #787183",
"S. c #787384",
"D. c #7B7485",
"F. c #7C7785",
"G. c #7C7487",
"H. c #787885",
"J. c #777488",
"K. c #7C748B",
"L. c #FF8FAA",
"P. c #FF9EB0",
"I. c #FF9EB4",
"U. c #F2D5D0",
"Y. c #F7DBD6",
"T. c #F5DFDB",
/* pixels */
"                                            9                                                       ",
"                                          9 N.Q $                 w.e e                             ",
"                                          :.:.6.} B.            e e s e e V.                        ",
"                                        * 8.*.*.t.k           e f       X.8                         ",
"                                        0 6.Q } :.Q         e f                                     ",
"                                        C 1.R K 6.]       e e     m.L.I.M.                          ",
"                                        ] :.*.A #.Q       e e     z.k.j.P.                          ",
"                                      g 1.:.:.Q K T       e e     c.x.v.l.                          ",
"                                      > t.#.#.:.A e         e e   n.n.n.7                           ",
"                                      k 6.:.#.:.:.T  .      e e e                                   ",
"                                      T *.#.*.*.:.p.>           e e e e                             ",
"                                      #.:.:.*.*.#.6.b               e e                             ",
"                                    > 6.:.#.*.*.#.:.]               e e                             ",
"                            h , 4 s e 6.*.#.*.*.*.:.:.,             e e                             ",
"                        * R 8.6.t.1.K 1.#.:.*.#.*.:.:.b ] K b , g.  e e                             ",
"                      0 f.:.:.*.*.] N #.:.:.:.:.*.:.#.A :.:.6.p.w.> e e                             ",
"                      Q 6.*.*.*.*.:.Q A A K I T K D C R *.*.*.*.:.Z.e e                             ",
"                      * 8.t.:.*.*.*.:.:.*.( R W W ] *.<.*.*.*.1.p.B e e                             ",
"                        s.4 Q t.8.6.2.J.G.S.S.S.S.K.s.<.1.e.q.( *   e e                             ",
"                              b 4 B F . . . . . . . O ^ N , :       e e                             ",
"                                    < T.T.T.T.T.U.Y.T.6             e e                             ",
"                                  =.> > > > > , > > , ,             e e                             ",
"                                e z c L ) ) O.) ) M s c s s         e e                             ",
"                              e k b b b z b b v b k z b z z k s     e h                             ",
"                            e k z b z b z b z b b c b k b k b c e   e e                             ",
"                          H.k v b z b z b z b z k b b b b b v b v 5 e 1                             ",
"                          k v v z b z b z b z b b k b k v b v k k v o .                             ",
"                        e b v v b z b z b z b z b b b b v b e > #.Z.+.T.T.                          ",
"                      e k z b z z b z b z b z b b z b b v e > p.:._ ] T.T.                          ",
"                      k b b z b b z b z b z b z z b z k e h p.:.:.] +.T.T.                          ",
"                      c b z b b b b z b b b b b b k k > T t.:.:.6.q.X +                             ",
"                      e k k k k k k k k k k k k e 4 k t.:.*.6.6.*   e s                             ",
"                            K b k c k s k k k A T 6.1.:.*.( b  .    e e                             ",
"                            t.K ] i.1.6.1.6.6.:.:.*.*.#.:.#.,       e e                             ",
"                            } A :.*.*.*.#.*.*.*.*.*.*.*.*.t.4       e e                             ",
"                            R K :.*.*.*.:.#.*.*.*.*.*.*.#.1.b       e e                             ",
"                            K ( :.#.*.*.*.*.*.*.*.*.*.*.*.:.W       h e                             ",
"                            A :.*.*.*.*.*.*.*.*.*.*.*.*.*.*.w. .    e p                             ",
"                            K :.*.*.*.*.*.*.*.*.*.*.*.*.*.*.t.,     e e                             ",
"                          $ 6.#.*.*.*.*.*.*.*.*.*.*.*.*.*.*.1.A     e e                             ",
"                          4 t.#.*.*.*.*.*.*.*.*.#.:.:.#.:.#.:.Q     e e                             ",
"                          K :.:.*.*.*.*.*.*.*.*.:.#.#.:.#.&.=.:.0.  e e                             ",
"                          #.*.#.*.*.*.*.*.*.*.*.#.#.#.#.:.#.:.6.e   e e                             ",
"                          w.#.:.*.*.*.*.*.*.*.*.#.:.:.#.:.#.#.6.4   e e                             ",
"                          6.:.#.#.*.*.*.*.*.*.*.:.:.#.:.#.:.#.t.b   e e                             ",
"                          * h.6.:.:.*.*.*.*.*.#.#.#.#.#.*.:.6.t.4   e e                             ",
"                            $ b #.t.6.1.:.:.:.:.:.:.6.6.y.2.b >     e e                             ",
"                                  > p B K T R T T K A s , u.                                        ",
"                                                                                                    ",
"                                                                                                    "
};
