/* XPM */
static char *_874ea3b48ab46ada70d63f15952e6feIAg3cVeb2v8ZP2QB[] = {
/* columns rows colors chars-per-pixel */
"50 50 142 2 ",
"   c #1F1F1F",
".  c #1F1F20",
"X  c #1F2020",
"o  c #222122",
"O  c #282727",
"+  c #282827",
"@  c #27272A",
"#  c #272828",
"$  c #2B2B2C",
"%  c #2E2E31",
"&  c #302F34",
"*  c #322F3A",
"=  c #2F3032",
"-  c #323235",
";  c #35343B",
":  c #38373C",
">  c #37393B",
",  c #3A393D",
"<  c #373542",
"1  c #393645",
"2  c #3B3A45",
"3  c #3E3B4A",
"4  c #403D47",
"5  c #423E4F",
"6  c #423F50",
"7  c #3F4145",
"8  c #3E404A",
"9  c #404347",
"0  c #42444B",
"q  c #46494E",
"w  c #4E4E4E",
"e  c #454254",
"r  c #484554",
"t  c #464952",
"y  c #4A4B55",
"u  c #474558",
"i  c #484659",
"p  c #474A5A",
"a  c #4B4C5B",
"s  c #504C5E",
"d  c #4E5157",
"f  c #4C515D",
"g  c #565656",
"h  c #51545D",
"j  c #55585F",
"k  c #5A5B5C",
"l  c #4E4F62",
"z  c #514F60",
"x  c #4E5262",
"c  c #545365",
"v  c #595666",
"b  c #565A66",
"n  c #5B5D64",
"m  c #555769",
"M  c #5A5768",
"N  c #565A6B",
"B  c #5A5C6C",
"V  c #575E70",
"C  c #595F71",
"Z  c #5B616F",
"A  c #5B6273",
"S  c #5F6678",
"D  c #646567",
"F  c #63666D",
"G  c #696B6D",
"H  c #636474",
"J  c #696777",
"K  c #656A74",
"L  c #606779",
"P  c #646B7B",
"I  c #6A6D7D",
"U  c #6E7175",
"Y  c #6A717E",
"T  c #717274",
"R  c #75787D",
"E  c #7A7A7A",
"W  c #676E81",
"Q  c #6A6F81",
"!  c #6C7383",
"~  c #6E7689",
"^  c #717685",
"/  c #767A82",
"(  c #7A7D83",
")  c #727A8C",
"_  c #787F8C",
"`  c #767F90",
"'  c #7E8186",
"]  c #7B828E",
"[  c #778092",
"{  c #7B8395",
"}  c #7C8598",
"|  c #838384",
" . c #888887",
".. c #81848A",
"X. c #81858B",
"o. c #858489",
"O. c #87858C",
"+. c #88868D",
"@. c #85888D",
"#. c #86898E",
"$. c #898989",
"%. c #8A8A8A",
"&. c gray56",
"*. c #808794",
"=. c #818795",
"-. c #818997",
";. c #828A98",
":. c #838A9A",
">. c #848D9C",
",. c #858D9D",
"<. c #868E9C",
"1. c #878F9D",
"2. c #8B919E",
"3. c #909090",
"4. c #919090",
"5. c #929292",
"6. c #959494",
"7. c #969695",
"8. c #989797",
"9. c #989897",
"0. c #97979A",
"q. c #989898",
"w. c #9A9999",
"e. c #9A9A99",
"r. c #9B9B9A",
"t. c #9B9B9B",
"y. c #9C9C9B",
"u. c gray61",
"i. c #9D9C9C",
"p. c #9F9F9F",
"a. c #8790A1",
"s. c #8A93A3",
"d. c #8D93A0",
"f. c #8B94A3",
"g. c #8F95A2",
"h. c #9198A5",
"j. c #949BA8",
"k. c #949CA8",
"l. c #969DA9",
"z. c #A1A0A0",
"x. c #A8A8A9",
"c. c #ACACAC",
/* pixels */
"t.5.&.5.5.&.&.5.5.5.6.9.t.9.6.9.6.5.9.7.9.t.7.9.7.7.7.7.7.i.t.t.t.t.6.6.6.t.6.9.9.9.t.t.y.t.y.p.x.E ",
"6.( @.@.@.@.@.X.@.@.G g g g D ' ' ' ' ' ' ' ' ' ' ( ' ' E ' ' ( ' ' ' ' T g g D X.X.X.X.X.] ( n t.| ",
"5.' l.l.j.j.l.h.h.h.j % + % g { *.} -.} { ] ] ] { { { *.} ;.} ' ] ] ] { K = # d <.<.<.<.;.;.~ 3 X.o.",
"6.| k.s.s.s.s.{ ! ! Y c $ Z ] ] ] ] ] ] R A A H K _ ] ] ] ] ) H A F A A A b = t } } } { S A V 1 +.$.",
"t.X.h.s.s.1.{ ^ ! ! ! b - F { ] / Y Y Y K b n B Z I Y Y Y Y Y Z Z Z Z Z B s = y { ! ! W A A N 1 o.%.",
"t.' j.1.;.{ I ! I ! I b - Z ] / S Z Z Z B b v b Z B Z Z B B Z Z Z Z Z Z b 0 - g [ A V V V A N 1 +.%.",
"t.( h.^ I J J I ! Y H y - F ^ A Z Z Z Z Z B b v b c B Z n c c b Z Z Z Z b r - y [ S A A V V N 1 +. .",
"i.' g.I J J I I I H B y - F ^ Z Z Z Z Z Z Z B B B n Z Z v v v n Z Z Z c a e - d { A Z Z V N l 1 +. .",
"6.X.g.I J H J J H M M y - F / Z Z Z Z Z B M b b b b b B A B b Z n b b p r e - q ) C C N c N l 1 +. .",
"t.( g.^ H M v M M M M y - F ^ Z Z Z Z Z c r r r r r r a B Z Z Z a r r r r e - 9 C C N c C V N 1 +. .",
"r.' d.H B M v M v M M y $ b K Z Z Z A c a r r r r r r r s a h s y r r r r e $ 9 S C V V C N i 1 +. .",
"i.' g.B v v M M v M M r $ 8 c b v b b r r r r r r r r r r r r r r r r r r e % > l m m m m l 6 1 +. .",
"i.X.2.B v v M v v v v y O $ > r r r r r r r r r r r r r r r r r r r r r r r $ $ % 3 6 e e e 6 1 +. .",
"p.n q : , , , , 2 , , - O O $ - = - - - > > - > ; ; - - - 0 r r r r r r 9 - $ + @ % ; ; - = % @ ' %.",
"p.w $ 0 y y y y y y y q q q 2 + # = 8 q q 0 0 0 q 0 9 2 $ ; 2 2 4 4 4 3 ; $ # - q t p y t > @ X E o.",
"p.w , _ { { } } } { { { } } Z $ # t P P P P P P P P K Z - $ $ $ % - - $ $ $ $ y } } } [ { b @ X E %.",
"l.J ) ` ` ` ` ` { { } ) P L A x - 0 P P P P N N v x x x 8 = > S Q W I P P P P ~ } } ^ P W V e X E o.",
"p.( 1.Q ~ ~ ) ` { { ) W N V V l ; q W P A Z f p f p x p 8 7 7 [ } ` ~ ~ ) } } ` ! ! L V V A x o E %.",
"p.E } W C M V Q ` ` W N c V m 6 - t P P B a p u p p x p 2 = 7 [ { ) C C P [ } ~ C c N C C C l o E %.",
"p.( ` W C C m W L H M v V l i e - t P b a i r p f p f p 2 = 7 [ Q S C M C L L S C C C A C m 6 o E %.",
"p.( =.c c c C C N l l l z u e 6 ; t P f i a p u 8 x 8 8 1 * 7 [ W V M c m m N S C m l m l l 3 . E %.",
"r.( =.r 6 i C C m 6 6 6 e e e 6 ; q L f a f x 8 3 x 8 1 1 * 7 [ L V c c v v N N N e 6 u 6 6 3 o E %.",
"p.( =.i 6 i i s l 6 6 6 e e e e = 2 x f p p 8 1 1 3 2 1 1 = - A V V V N m u i i e e e 6 6 6 6 . E %.",
"p.( =.i i 6 6 6 6 i 6 6 e e 3 ; $ = 2 8 8 e 3 1 1 1 1 < * # % 7 a l c l l 5 5 e e e e e u 6 6 o E %.",
"p.( / r 5 5 5 5 5 5 5 6 6 6 < # $ + @ ; < 1 < 2 < < 1 ; $ $ $ # 2 0 6 5 5 6 0 e 5 6 6 6 6 0 1 X E %.",
"p.g : - & $ % $ % $ % - - % $ $ + @ $ $ $ - % - % * $ $ $ # $ # $ $ $ % % - - $ $ % $ $ % $ $   E %.",
"p.J J F F n $ O > K J J K K K K K K K K K I J K S L K K K K K K , $ $ d b Z Z Z N n b n b B b *  . .",
"p.( 2.=.} Y $ - d s.s.s.s.s.1.a.1.a.s.s.s.1.a.a.a.a.1.>.>.>.1.} 3 $ > Y _ ~ ~ ~ ^ ~ ) _ ) { ^ 3 %.o.",
"z.( :.I K B $ Z 1.s.s.a.a._ ! ^ ! { s.s._ ~ ! ^ ^ J J I ~ ! Y B ; 2 ! ) ! N N V V N W { P P Z 1 +. .",
"z.( ;.K B i $ D s.s.` _ ) ^ Q Q J Q ^ ^ ! ! H M B B J I ! H B v > 7 / A N c N m c c v H J H B 3 +. .",
"z.( -.H v 0 $ Z 1.;.) W I I J ! J J F H J J M v M M H I J B v v , 7 W m z z v z s a a a B C M < +. .",
"z.( =.s a 0 $ d ^ Q Q P v v H I M v M v M M v v v M v M v v v v ; - N m N m 6 5 5 6 r s 6 5 5 2 +. .",
"i.( } h 3 - $ q F C M B M M M B B M M M r ; ; ; ; , , , 2 , , - $ - e r p r 3 6 3 6 0 e 5 5 5 < +. .",
"t.U I r ; $ O < y a d a s s d s y a s y , + $ - 7 9 9 0 0 r 0 3 & $ < 2 2 2 3 1 3 1 1 1 2 2 < ; o.%.",
"r.w $ $ $ $ $ % - ; - - - > - , - ; ; % $ + $ n { { { { ` ` ` ` 9 $ $ $ $ + $ = - % $ $ % $ #   E %.",
"i.w - K ! Y Y ! I ! Y R Y Y Y Y Y ! ! Q y % F _ { { { { } ` ;.` ^ B $ O + $ h A Z N Z Z B 7 #   E %.",
"6.k f ] { } } } } } } } =.} ` ) ) ) ) ` f % ^ } { { { { } { ` ` ) L 2 $ = 7 S P P A S S A y % . E %.",
"6.R 1.} { { [ [ ` { { } { { ~ C C C V C t > ^ } { { { { { { ` C A A N - 2 L P P S x A S x x e X E %.",
"5./ 2.} ! S S S Q } } ) S S C v c v m Z t , ~ } [ P ) } { P B C A N u - 7 P P A x f x x x x 8 # E &.",
"5.R 1.} ! V N N C Q Q W C N M v M c a c 0 - ^ } [ A P ! ! V c N B N e - 7 I S N f p p p p p 8 X E %.",
"4./ 1.` Q V c c v v v m C N c M C c 6 i 3 ; ^ ` ) C M c c M M m N m e - 8 L x x p p r p y 5 ; . E &.",
"4./ ;.W C C M c v z M C C C C C l 6 6 6 1 ; ~ ! C M c M C C C C l r e - 9 S a p f p a p a e < . E %.",
"6./ } C M V M l s z z m C m l c l 6 6 i 1 ; / Q C C l l C m m c e e 6 ; 9 P x p e 8 a p e 3 * o E &.",
"0./ ;.M c c V s 6 6 6 l N l 6 6 6 i 6 6 4 & Q Q C C l 6 c l 6 6 e e 0 - 7 S x 8 < < 3 p 1 1 < . E %.",
"6./ :.H C c u u u 6 6 6 e u 6 6 6 i 6 6 < % B H C i 6 u i 6 i i 6 6 6 * ; x 3 1 1 1 1 1 1 1 < . E 4.",
"0.D M z l s u 6 6 u u 6 6 i u i 6 6 6 5 & $ 3 i l 6 u 6 6 6 6 6 u 6 < $ * 3 1 1 1 1 1 < 1 < % . E %.",
"i.r $ 4 5 5 1 5 6 5 3 3 3 3 3 3 5 4 3 $ @ @ . * 5 5 6 5 4 5 4 4 4 < O O @ < * < < < < < * % # . E %.",
"i.w @ o o . . . . . o o o o o o . .         . . . . . . . . . . . o . . . . . . . . . . . .     E %.",
"c.6.E E E E E E E E E E E E E E E E E E E E E E E E E E E E E E E E E E E E E E E E E E E E E E z.$.",
" .5.&.&.&.%.%.%.&.&.$.%.%.$.%.%.%.$.%.%.$.%.%.$.%.%.$.%.%.$.%.%.$.$.$.&.$.%.%.$.%.%.%.%.$.$.$.$.X.T "
};
